<svg id="Capa_1" enable-background="new 0 0 524.235 524.235" height="512" viewBox="0 0 524.235 524.235" width="512" xmlns="http://www.w3.org/2000/svg">
<path d="m366.217 491.471-104.099-79.606-104.099 79.606z"/>
<path d="m393.176 470.854v-159.21l-104.099 79.604z"/>
<path d="m131.059 311.644v159.21l104.099-79.606z"/>
<path d="m262.118 370.632 99.058-75.75h-198.116z"/>
<path d="m434.132 90.102-172.014-57.338-172.015 57.338-90.103 139.25h32.765v262.118h65.529v-229.353l327.647-.064-.002 229.417h65.531v-262.118h32.765s-90.103-139.25-90.103-139.25zm-172.014 73.721c-18.096 0-32.765-14.671-32.765-32.765 0-18.096 14.669-32.765 32.765-32.765s32.765 14.669 32.765 32.765c-.001 18.094-14.669 32.765-32.765 32.765z"/>
</svg>