<?xml version="1.0" encoding="iso-8859-1"?>
<!-- Generator: Adobe Illustrator 21.0.0, SVG Export Plug-In . SVG Version: 6.00 Build 0)  -->
<svg xmlns="http://www.w3.org/2000/svg" xmlns:xlink="http://www.w3.org/1999/xlink" version="1.1" id="Capa_1" x="0px" y="0px" viewBox="0 0 510.144 510.144" style="enable-background:new 0 0 510.144 510.144;" xml:space="preserve" width="512" height="512">
<g>
	<path style="fill:#F66722;" d="M306.847,194.601c0,74.368-51.775,178.709-51.775,178.709s-51.775-104.342-51.775-178.709   S255.072,7.5,255.072,7.5S306.847,120.233,306.847,194.601z"/>
	<path style="fill:#F9D735;" d="M386.222,301.082c-42.317,42.317-131.15,72.228-131.15,72.228s29.911-88.833,72.228-131.15   s135.925-77.003,135.925-77.003S428.539,258.766,386.222,301.082z"/>
	<path style="fill:#A2DB18;" d="M372.779,407.412c-48.983,0-117.707-34.102-117.707-34.102s68.725-34.102,117.707-34.102   s123.234,34.102,123.234,34.102S421.762,407.412,372.779,407.412z"/>
	<path style="fill:#F66722;" d="M299.95,454.799c-26.293-26.293-44.878-81.489-44.878-81.489s55.196,18.585,81.489,44.878   c26.293,26.293,47.845,84.455,47.845,84.455S326.243,481.092,299.95,454.799z"/>
	<path style="fill:#DF4B0F;" d="M255.072,7.5c0,0-6.556,14.278-15,36.013c15.29,39.356,36.775,103.179,36.775,151.088   c0,47.909-21.485,108.25-36.775,145.128c8.444,20.367,15,33.582,15,33.582s51.775-104.342,51.775-178.709   C306.847,120.233,255.072,7.5,255.072,7.5z"/>
	<path style="fill:#E6BF14;" d="M427.234,180.227c-11.687,28.215-39.191,89.034-71.012,120.855   c-25.099,25.099-66.561,45.833-96.147,58.551c-3.25,8.473-5.003,13.677-5.003,13.677s88.833-29.911,131.15-72.228   c42.317-42.317,77.003-135.925,77.003-135.925S448.084,170.769,427.234,180.227z"/>
	<path style="fill:#6ABA0F;" d="M372.779,339.208c-7.881,0-16.273,0.886-24.808,2.368c45.763,7.726,98.042,31.734,98.042,31.734   s-52.279,24.008-98.042,31.734c8.535,1.481,16.927,2.368,24.808,2.368c48.983,0,123.234-34.102,123.234-34.102   S421.762,339.208,372.779,339.208z"/>
	<path style="fill:#DF4B0F;" d="M306.561,418.188c17.498,17.498,32.893,49.104,41.236,68.295   c19.702,9.894,36.608,16.16,36.608,16.16s-21.552-58.162-47.845-84.455c-26.293-26.293-81.489-44.878-81.489-44.878   s1.995,5.925,5.602,14.816C276.675,395.872,294.605,406.233,306.561,418.188z"/>
	<path style="fill:#F9D735;" d="M123.922,301.082c42.317,42.317,131.15,72.228,131.15,72.228s-29.911-88.833-72.228-131.15   S46.919,165.157,46.919,165.157S81.605,258.766,123.922,301.082z"/>
	<path style="fill:#6ABA0F;" d="M137.364,407.412c48.983,0,117.707-34.102,117.707-34.102s-68.725-34.102-117.707-34.102   S14.13,373.31,14.13,373.31S88.382,407.412,137.364,407.412z"/>
	<path style="fill:#F66722;" d="M210.194,454.799c26.293-26.293,44.878-81.489,44.878-81.489s-55.196,18.585-81.489,44.878   s-47.845,84.455-47.845,84.455S183.901,481.092,210.194,454.799z"/>
	<path d="M499.144,366.495c-3.093-1.42-76.317-34.787-126.364-34.787c-4.688,0-9.531,0.292-14.463,0.823   c13.329-8.636,24.433-17.37,33.209-26.146c18.14-18.14,36.918-47.025,55.811-85.853c13.962-28.692,22.563-51.799,22.922-52.769   c1.018-2.748,0.342-5.837-1.729-7.909c-2.073-2.073-5.162-2.747-7.909-1.729c-0.97,0.359-24.077,8.96-52.77,22.921   c-38.828,18.893-67.713,37.67-85.854,55.811c-5.296,5.296-10.576,11.443-15.829,18.41c5.432-22.744,8.18-43.035,8.18-60.665   c0-22.32-4.491-50.011-13.35-82.306c-1.095-3.994-5.224-6.345-9.216-5.249c-3.995,1.096-6.345,5.222-5.249,9.217   c8.503,31.002,12.814,57.358,12.814,78.338c0,36.009-12.725,79.803-25.462,114.624c-1.797,3.644-3.587,7.381-5.37,11.221   c-5.528,11.907-10.056,22.77-13.442,31.349c-3.387-8.579-7.915-19.442-13.443-31.349c-1.783-3.84-3.573-7.577-5.37-11.221   c-12.738-34.82-25.462-78.615-25.462-114.624c0-55.677,30.372-134.866,44.283-168.214c5.44,13.016,13.389,33.002,21.021,55.778   c1.316,3.927,5.567,6.042,9.494,4.728c3.928-1.316,6.045-5.567,4.729-9.495c-13.62-40.642-28.289-72.709-28.436-73.028   C260.665,1.707,258.003,0,255.072,0s-5.593,1.707-6.815,4.37c-0.131,0.285-13.247,28.95-26.161,66.345   c-17.451,50.528-26.299,92.209-26.299,123.887c0,19.143,3.265,40.045,8.164,60.644c-5.248-6.958-10.523-13.098-15.813-18.388   c-18.141-18.14-47.025-36.917-85.854-55.811c-28.692-13.961-51.8-22.562-52.77-22.921c-2.747-1.018-5.836-0.343-7.909,1.729   c-2.071,2.072-2.747,5.161-1.729,7.909c0.56,1.512,13.96,37.474,34.46,75.25c1.975,3.64,6.526,4.99,10.169,3.015   c3.641-1.976,4.99-6.528,3.015-10.169c-11.783-21.714-21.306-43.201-27.16-57.243c28.297,11.815,86.886,38.563,117.17,68.847   c17.351,17.351,32.683,43.158,44.579,67.086c6.38,17.422,12.754,32.577,17.632,43.572c-8.671-3.692-19.769-8.113-32.042-12.275   c-26.772-12.483-58.331-29.914-78.484-50.067c-7.079-7.079-14.461-16.23-21.941-27.2c-2.335-3.423-6.999-4.306-10.422-1.971   c-3.422,2.333-4.305,7-1.971,10.421c8.005,11.741,15.988,21.617,23.727,29.356c8.776,8.776,19.88,17.51,33.209,26.146   c-4.932-0.531-9.775-0.823-14.463-0.823c-50.047,0-123.271,33.366-126.364,34.787c-2.663,1.223-4.37,3.885-4.37,6.815   s1.707,5.592,4.37,6.815c3.093,1.42,76.317,34.786,126.364,34.786c10.366,0,21.493-1.431,32.65-3.711   c-0.588,0.558-1.17,1.118-1.735,1.684c-27.14,27.141-48.671,84.715-49.574,87.152c-1.018,2.748-0.342,5.837,1.729,7.909   c1.433,1.432,3.35,2.197,5.305,2.197c0.874,0,1.756-0.153,2.604-0.467c2.438-0.903,60.013-22.434,87.152-49.574   c17.615-17.615,31.65-46.792,39.576-65.827c7.926,19.035,21.96,48.212,39.574,65.827c27.141,27.141,84.715,48.671,87.153,49.574   c0.849,0.314,1.729,0.467,2.604,0.467c1.954,0,3.872-0.765,5.305-2.197c2.071-2.072,2.747-5.161,1.729-7.909   c-0.902-2.438-22.434-60.012-49.573-87.152c-0.565-0.565-1.147-1.126-1.736-1.684c11.157,2.28,22.285,3.711,32.651,3.711   c50.047,0,123.271-33.366,126.364-34.786c2.663-1.223,4.37-3.885,4.37-6.815S501.807,367.718,499.144,366.495z M332.604,247.463   c30.281-30.282,88.858-57.025,117.157-68.842c-11.816,28.299-38.56,86.876-68.843,117.158   c-20.153,20.153-51.712,37.585-78.484,50.067c-12.289,4.167-23.4,8.594-32.076,12.289c4.793-10.84,11.061-25.78,17.397-43.042   C299.688,291.014,315.121,264.946,332.604,247.463z M137.364,399.912c-33.346,0-79.849-16.828-104.044-26.602   c24.195-9.774,70.698-26.602,104.044-26.602c20.161,0,44.137,6.168,64.923,13.196c12.005,5.571,22.949,10.126,31.551,13.518   c-6.154,2.568-13.344,5.766-20.853,9.512C190.112,391.369,161.094,399.912,137.364,399.912z M204.891,449.496   C204.89,449.496,204.89,449.496,204.891,449.496c-16.419,16.419-46.659,31.208-65.404,39.397   c8.183-18.739,22.963-48.964,39.4-65.401c10.28-10.28,25.504-19.427,39.822-26.618c8.688-3.214,16.471-6.401,22.803-9.127   C234.099,405.639,220.879,433.508,204.891,449.496z M331.257,423.492c16.419,16.419,31.209,46.659,39.397,65.404   c-18.738-8.182-48.964-22.963-65.4-39.4c-15.964-15.964-29.193-43.845-36.614-61.746c6.346,2.733,14.15,5.927,22.862,9.148   C305.793,404.081,320.98,413.215,331.257,423.492z M372.779,399.912c-23.729,0-52.747-8.543-75.62-16.978   c-7.509-3.746-14.699-6.944-20.853-9.512c8.602-3.391,19.546-7.946,31.55-13.518c20.785-7.028,44.762-13.196,64.923-13.196   c33.349,0,79.854,16.83,104.048,26.604C452.641,383.086,406.155,399.912,372.779,399.912z"/>
</g>















</svg>
