<svg id="Layer_1" height="512" viewBox="0 0 128 128" width="512" xmlns="http://www.w3.org/2000/svg" data-name="Layer 1">
<path d="m36.734 24.052h6.701v41.26h-6.701z" fill="#b85530" transform="matrix(-.799 .601 -.601 -.799 98.976 56.305)"/>
<path d="m27.308 27.821 25.138 33.378 2.715-2.041-25.099-33.408z" fill="#e66a3e"/>
<path d="m63.041 95.156c3.972 3.145 10.032 2.933 14.612-.51s6.466-9.207 4.547-13.9l-10.578-25.846a2.8 2.8 0 0 0 -4.273-1.177l-26.149 19.661a2.8 2.8 0 0 0 -.055 4.432z" fill="#cce8f7"/>
<path d="m82.2 80.75-10.578-25.85a2.8 2.8 0 0 0 -4.273-1.177l-13.111 9.854 23.415 31.068c4.579-3.445 6.465-9.206 4.547-13.895z" fill="#e7ffff"/>
<path d="m102.773 103.631a12.347 12.347 0 0 0 -3.224.439 12.483 12.483 0 0 0 -12.4-14.53c-.277 0-.547.024-.82.041a17.988 17.988 0 0 0 -32.952-3.237c-.358-.031-.718-.055-1.084-.055a12.557 12.557 0 0 0 -12.513 11.621 9.239 9.239 0 0 0 -10.227 5.731c-.062 0-.122-.009-.185-.009a12.369 12.369 0 0 0 -12.368 12.368h98.143a12.369 12.369 0 0 0 -12.37-12.369z" fill="#e66a3e"/>
<path d="m87.153 89.541c-.277 0-.547.024-.82.041a17.978 17.978 0 0 0 -22.333-11.845v38.263h51.142a12.331 12.331 0 0 0 -15.593-11.93 12.483 12.483 0 0 0 -12.4-14.53z" fill="#b85530"/>
<path d="m51.869 59.739h9.803v14.271h-9.803z" fill="#fbbe2c" transform="matrix(-.799 .601 -.601 -.799 142.336 86.206)"/>
<path d="m25.567 32.7a1.749 1.749 0 0 1 -.753-.17l-11.583-5.53a3.729 3.729 0 0 1 -.635-6.345l12.041-9.055a3.728 3.728 0 0 1 5.919 2.373l2.093 12.66a1.751 1.751 0 0 1 -.675 1.685l-5.356 4.027a1.752 1.752 0 0 1 -1.051.355zm1.306-18.346a.217.217 0 0 0 -.133.048l-12.04 9.055a.228.228 0 0 0 .039.388l10.625 5.069 3.661-2.752-1.925-11.614a.212.212 0 0 0 -.14-.175.235.235 0 0 0 -.087-.019z" fill="#06465e"/>
<rect fill="#fbbe2c" height="6.019" rx="3.009" transform="matrix(-.799 .601 -.601 -.799 45.924 19.722)" width="13.34" x="12.998" y="14.521"/><path d="m49.125 101.943a1.75 1.75 0 0 1 -1.75-1.75 7.952 7.952 0 0 1 7.943-7.943 1.75 1.75 0 1 1 0 3.5 4.448 4.448 0 0 0 -4.443 4.443 1.75 1.75 0 0 1 -1.75 1.75z" fill="#b85530"/>
<path d="m76.432 90.9a1.75 1.75 0 0 1 -1.74-1.584 2.586 2.586 0 0 0 -2.816-2.327 1.75 1.75 0 0 1 -.331-3.484 6.083 6.083 0 0 1 6.632 5.48 1.75 1.75 0 0 1 -1.577 1.909c-.057.006-.113.006-.168.006z" fill="#e66a3e"/>
<path d="m116 114.25h-104a1.75 1.75 0 0 0 0 3.5h104a1.75 1.75 0 0 0 0-3.5z" fill="#b85530"/>
<g fill="#fed943">
<path d="m52.446 61.199 8.589 11.397 3.942-2.965-8.577-11.406z"/>
<path d="m21.394 20 3.006-2.264a3.009 3.009 0 0 0 .6-4.214 3.009 3.009 0 0 0 -4.214-.6l-3.014 2.266z"/>
</g></svg>