<svg id="Layer_3" enable-background="new 0 0 64 64" height="512" viewBox="0 0 64 64" width="512" xmlns="http://www.w3.org/2000/svg">
<path d="m30 49c0 7.18-5.82 13-13 13s-13-5.82-13-13" fill="#976947"/>
<path d="m18 14c2.209 0 4-1.791 4-4s-1.791-4-4-4c-.75 0-1.443.219-2.043.578-.217-2.561-2.34-4.578-4.957-4.578-2.761 0-5 2.239-5 5 0 .43.071.841.173 1.239-.36-.154-.756-.239-1.173-.239-1.657 0-3 1.343-3 3s1.343 3 3 3z" fill="#a1cdfb"/>
<path d="m42 14c2.209 0 4-1.791 4-4s-1.791-4-4-4c-.75 0-1.443.219-2.043.578-.217-2.561-2.34-4.578-4.957-4.578-2.761 0-5 2.239-5 5 0 .43.071.841.173 1.239-.36-.154-.756-.239-1.173-.239-1.657 0-3 1.343-3 3s1.343 3 3 3z" fill="#a1cdfb"/>
<g fill="#c18e59">
<ellipse cx="20" cy="56" rx="3" ry="2"/>
<ellipse cx="11" cy="53" rx="2" ry="3"/>
<ellipse cx="21" cy="47" rx="2" ry="3"/>
</g>
<ellipse cx="31" cy="42" fill="#78b75b" rx="5" ry="3"/>
<ellipse cx="41" cy="40" fill="#669e4f" rx="5" ry="3"/>
<path d="m30 51h33v2h-33z"/>
<path d="m1 51h3v2h-3z"/>
<path d="m17 63c-7.72 0-14-6.28-14-14h2c0 6.617 5.383 12 12 12s12-5.383 12-12h2c0 7.72-6.28 14-14 14z"/>
<path d="m20 59c-2.243 0-4-1.317-4-3s1.757-3 4-3 4 1.317 4 3-1.757 3-4 3zm0-4c-1.221 0-2 .592-2 1s.779 1 2 1 2-.592 2-1-.779-1-2-1z"/>
<path d="m11 57c-1.682 0-3-1.757-3-4s1.318-4 3-4 3 1.757 3 4-1.318 4-3 4zm0-6c-.408 0-1 .779-1 2s.592 2 1 2 1-.779 1-2-.592-2-1-2z"/>
<path d="m21 51c-1.682 0-3-1.757-3-4s1.318-4 3-4 3 1.757 3 4-1.318 4-3 4zm0-6c-.408 0-1 .779-1 2s.592 2 1 2 1-.779 1-2-.592-2-1-2z"/>
<path d="m31 46c-3.364 0-6-1.757-6-4s2.636-4 6-4 6 1.757 6 4-2.636 4-6 4zm0-6c-2.29 0-4 1.056-4 2s1.71 2 4 2 4-1.056 4-2-1.71-2-4-2z"/>
<path d="m41 44c-3.364 0-6-1.757-6-4s2.636-4 6-4 6 1.757 6 4-2.636 4-6 4zm0-6c-2.29 0-4 1.056-4 2s1.71 2 4 2 4-1.056 4-2-1.71-2-4-2z"/>
<path d="m35 40h2v12h-2z"/>
<path d="m18 15h-13c-2.206 0-4-1.794-4-4s1.794-4 4-4c0-3.309 2.691-6 6-6 2.673 0 4.93 1.725 5.697 4.18.426-.119.865-.18 1.303-.18 2.757 0 5 2.243 5 5s-2.243 5-5 5zm-13-6c-1.103 0-2 .897-2 2s.897 2 2 2h13c1.654 0 3-1.346 3-3s-1.346-3-3-3c-.532 0-1.046.146-1.528.436-.295.178-.662.19-.97.033-.307-.157-.512-.462-.541-.806-.177-2.089-1.88-3.663-3.961-3.663-2.206 0-4 1.794-4 4 0 .298.045.612.142.991.094.368-.028.759-.317 1.007s-.692.312-1.043.161c-.249-.105-.512-.159-.782-.159z"/>
<path d="m42 15h-13c-2.206 0-4-1.794-4-4s1.794-4 4-4c0-3.309 2.691-6 6-6 2.673 0 4.93 1.725 5.697 4.18.426-.119.865-.18 1.303-.18 2.757 0 5 2.243 5 5s-2.243 5-5 5zm-13-6c-1.103 0-2 .897-2 2s.897 2 2 2h13c1.654 0 3-1.346 3-3s-1.346-3-3-3c-.532 0-1.046.146-1.528.436-.296.178-.663.19-.97.033s-.512-.462-.541-.806c-.177-2.089-1.88-3.663-3.961-3.663-2.206 0-4 1.794-4 4 0 .298.045.612.142.991.094.368-.028.759-.317 1.007-.288.248-.692.312-1.043.161-.249-.105-.512-.159-.782-.159z"/>
<path d="m54.256 27.686-1.256.314.314-1.256c.449-1.796 1.377-3.435 2.686-4.744 1.309-1.309 2.948-2.237 4.744-2.686l1.256-.314-.314 1.256c-.449 1.796-1.377 3.435-2.686 4.744-1.309 1.309-2.948 2.237-4.744 2.686z" fill="#669e4f"/>
<path d="m49.744 27.686 1.256.314-.314-1.256c-.449-1.796-1.377-3.435-2.686-4.744-1.309-1.309-2.948-2.237-4.744-2.686l-1.256-.314.314 1.256c.449 1.796 1.377 3.435 2.686 4.744 1.309 1.309 2.948 2.237 4.744 2.686z" fill="#669e4f"/>
<path d="m52.658 26.683-.658 1.317-.658-1.317c-.883-1.764-1.342-3.71-1.342-5.683 0-1.973.459-3.919 1.342-5.683l.658-1.317.658 1.317c.883 1.764 1.342 3.71 1.342 5.683 0 1.973-.459 3.919-1.342 5.683z" fill="#78b75b"/>
<path d="m55.106 30.553-3.106-1.553 3.106-1.553c.588-.294 1.236-.447 1.894-.447.658 0 1.306.153 1.894.447l3.106 1.553-3.106 1.553c-.588.294-1.236.447-1.894.447-.658 0-1.306-.153-1.894-.447z" fill="#78b75b"/>
<path d="m45.106 30.553-3.106-1.553 3.106-1.553c.588-.294 1.236-.447 1.894-.447.658 0 1.306.153 1.894.447l3.106 1.553-3.106 1.553c-.588.294-1.236.447-1.894.447-.658 0-1.306-.153-1.894-.447z" fill="#78b75b"/>
<path d="m52 29c-.379 0-.725-.214-.895-.553l-.658-1.316c-.947-1.894-1.447-4.014-1.447-6.131s.5-4.237 1.447-6.131l.658-1.316c.339-.678 1.45-.678 1.789 0l.658 1.316c.948 1.894 1.448 4.014 1.448 6.131s-.5 4.237-1.447 6.131l-.658 1.316c-.17.339-.516.553-.895.553zm0-12.734c-.656 1.486-1 3.111-1 4.734s.344 3.248 1 4.734c.656-1.486 1-3.111 1-4.734s-.344-3.248-1-4.734z"/>
<path d="m57 32c-.808 0-1.618-.191-2.341-.553l-3.105-1.553c-.34-.169-.554-.515-.554-.894s.214-.725.553-.895l3.105-1.553c1.448-.723 3.236-.723 4.683 0l3.106 1.553c.339.17.553.516.553.895s-.214.725-.553.895l-3.105 1.553c-.724.361-1.534.552-2.342.552zm-1.448-2.342c.896.447 2 .447 2.896 0l1.316-.658-1.317-.658c-.895-.447-2-.447-2.895 0l-1.316.658z"/>
<path d="m47 32c-.808 0-1.618-.191-2.341-.553l-3.105-1.553c-.34-.169-.554-.515-.554-.894s.214-.725.553-.895l3.105-1.553c1.448-.723 3.236-.723 4.683 0l3.106 1.553c.339.17.553.516.553.895s-.214.725-.553.895l-3.105 1.553c-.724.361-1.534.552-2.342.552zm-1.448-2.342c.896.447 2 .447 2.896 0l1.316-.658-1.317-.658c-.895-.447-2-.447-2.895 0l-1.316.658z"/>
<path d="m53 29c-.262 0-.517-.103-.707-.293-.249-.248-.348-.608-.263-.949l.314-1.256c.493-1.971 1.512-3.772 2.949-5.209 1.437-1.438 3.238-2.457 5.209-2.949l1.255-.313c.338-.086.701.014.95.263.249.248.348.608.263.949l-.314 1.256c-.493 1.971-1.512 3.772-2.949 5.209-1.437 1.438-3.238 2.457-5.208 2.948l-1.256.314c-.08.02-.162.03-.243.03zm7.614-8.614c-1.474.435-2.817 1.231-3.907 2.321-1.089 1.09-1.887 2.434-2.321 3.907 1.473-.435 2.817-1.231 3.907-2.321 1.089-1.09 1.887-2.434 2.321-3.907z"/>
<path d="m51 29c-.081 0-.163-.01-.243-.03l-1.256-.314c-1.971-.491-3.771-1.511-5.208-2.948s-2.457-3.238-2.949-5.209l-.314-1.256c-.085-.341.015-.701.263-.949.249-.249.612-.349.95-.263l1.256.314c1.97.491 3.771 1.511 5.208 2.948s2.457 3.238 2.949 5.209l.314 1.256c.085.341-.015.701-.263.949-.19.19-.445.293-.707.293zm-7.614-8.614c.435 1.474 1.232 2.817 2.321 3.907 1.09 1.09 2.434 1.887 3.907 2.321-.435-1.474-1.232-2.817-2.321-3.907-1.09-1.09-2.434-1.887-3.907-2.321z"/>
<path d="m51 29h2v23h-2z"/>
</svg>