<svg height="512pt" viewBox="-37 0 512 512" width="512pt" xmlns="http://www.w3.org/2000/svg"><g fill-rule="evenodd"><path d="m218.917969 10c-218.9453128 0-237.503907 166.691406-183.054688 306.019531 20.960938 53.632813 55.738281 110.019531 98.640625 147.429688 27.5625 24.039062 56.792969 38.550781 84.414063 38.550781zm0 0" fill="#fd4848"/><path d="m375.652344 58.253906c-39.699219-35.644531-96.675782-48.253906-156.734375-48.253906v492c99.328125 0 219.425781-187.625 208.179687-331.144531-3.398437-43.367188-18.847656-83.332031-51.445312-112.601563zm0 0" fill="#73ca5b"/><path d="m288.585938 196.816406v-180.105468c-20.546876-4.363282-43.695313-6.710938-69.667969-6.710938-25.96875 0-49.121094 2.34375-69.664063 6.710938v180.105468c12.617188 5.449219 25.578125 14.226563 37.273438 25.921875.980468.980469 1.9375 1.96875 2.878906 2.964844-.90625-6.546875-1.378906-13.339844-1.378906-20.304687 0-35.601563 12.425781-66.6875 30.890625-83.320313 18.46875 16.632813 30.894531 47.714844 30.894531 83.320313 0 6.96875-.476562 13.757812-1.378906 20.304687.9375-.996094 1.894531-1.984375 2.875-2.964844 11.695312-11.695312 24.65625-20.472656 37.277344-25.921875zm0 0" fill="#ffba4a"/><path d="m268.1875 337.988281c-11.148438 1.3125-24.53125-3.683593-35.058594-14.210937-2.40625-2.40625-4.519531-4.960938-6.339844-7.601563h-15.738281c-1.820312 2.640625-3.9375 5.195313-6.339843 7.601563-10.527344 10.527344-23.910157 15.523437-35.058594 14.210937-1.125-9.550781 2.382812-20.746093 10.03125-30.375-1.96875.164063-3.972656.25-6 .25-8.824219 0-17.140625-1.605469-24.429688-4.441406v171.851563c23.09375 16.890624 46.925782 26.726562 69.667969 26.726562s46.570313-9.835938 69.664063-26.726562v-171.851563c-7.289063 2.835937-15.605469 4.441406-24.429688 4.441406-2.03125 0-4.03125-.085937-6-.25 7.648438 9.628907 11.15625 20.820313 10.03125 30.375zm0 0" fill="#ffba4a"/><path d="m218.917969 122.078125c18.46875 16.632813 30.894531 47.714844 30.894531 83.320313 0 6.96875-.476562 13.757812-1.378906 20.304687.9375-.996094 1.894531-1.984375 2.875-2.964844 21.019531-21.019531 46.121094-32.613281 65.980468-32.390625.222657 19.859375-11.371093 44.964844-32.390624 65.984375-5.023438 5.027344-10.285157 9.511719-15.652344 13.425781 17.175781 1.21875 31.917968 8.535157 40.144531 18.960938-9.03125 11.445312-25.90625 19.144531-45.234375 19.144531-2.03125 0-4.035156-.085937-6.003906-.25 7.652344 9.628907 11.160156 20.824219 10.035156 30.375-11.148438 1.316407-24.53125-3.683593-35.058594-14.207031-2.40625-2.40625-4.519531-4.960938-6.339844-7.605469-6.394531 0-7.625 0-15.742187 0-1.816406 2.644531-3.933594 5.199219-6.339844 7.605469-10.523437 10.523438-23.90625 15.523438-35.054687 14.207031-1.128906-9.550781 2.382812-20.742187 10.03125-30.375-1.96875.164063-3.972656.25-6 .25-19.332032 0-36.207032-7.699219-45.238282-19.140625 8.230469-10.425781 22.972657-17.746094 40.148438-18.960937-5.367188-3.917969-10.628906-8.402344-15.65625-13.429688-21.019531-21.019531-32.613281-46.125-32.390625-65.980469 19.859375-.222656 44.964844 11.371094 65.980469 32.386719.980468.980469 1.9375 1.96875 2.878906 2.964844-.90625-6.542969-1.378906-13.335937-1.378906-20.300781 0-35.605469 12.425781-66.691406 30.890625-83.324219zm0 0" fill="#ffe7c3"/></g><path d="m27.917969 129.003906c0 5.523438-4.476563 10-10 10-5.519531 0-10-4.476562-10-10 0-5.523437 4.480469-10 10-10 5.523437 0 10 4.476563 10 10zm0 0"/><path d="m406.917969 328.003906c0 5.519532-4.476563 10-10 10-5.523438 0-10-4.480468-10-10 0-5.523437 4.476562-10 10-10 5.523437 0 10 4.476563 10 10zm0 0"/><path d="m437.742188 183.03125c-1.109376-42.042969-12.113282-77.984375-32.703126-106.835938-17.25-24.167968-41.070312-42.894531-70.792968-55.660156-31.734375-13.625-70.535156-20.535156-115.328125-20.535156-47.152344 0-87.621094 7.652344-120.277344 22.746094-30.460937 14.074218-54.347656 34.644531-70.992187 61.140625-2.9375 4.679687-1.53125 10.851562 3.144531 13.789062 4.679687 2.9375 10.851562 1.53125 13.789062-3.148437 20.125-32.03125 51.839844-53.820313 94.671875-65.207032v153.46875c-6.433594-1.660156-12.757812-2.511718-18.816406-2.4375-5.4375.058594-9.828125 4.449219-9.890625 9.886719-.234375 21.019531 10.371094 45.191407 28.707031 66.097657v11.257812c-7.480468 3.832031-13.898437 8.902344-18.65625 14.933594-2.867187 3.632812-2.867187 8.757812 0 12.386718 4.835938 6.128907 11.226563 11.195313 18.65625 15v144.417969c-8.03125-7.164062-16.050781-15.285156-23.976562-24.339843-66.078125-75.464844-104.46875-186.421876-93.359375-269.828126.730469-5.476562-3.113281-10.503906-8.589844-11.230468-5.46875-.726563-10.503906 3.113281-11.230469 8.589844-6.058594 45.449218 1.066406 97.976562 20.601563 151.898437 18.003906 49.710937 45.539062 97.207031 77.53125 133.746094 38.867187 44.386719 81.019531 68.832031 118.691406 68.832031 28.90625 0 60.523437-14.316406 91.4375-41.40625 28.398437-24.886719 54.96875-59.210938 76.835937-99.261719 2.648438-4.847656.863282-10.921875-3.984374-13.570312-4.847657-2.644531-10.921876-.863281-13.566407 3.984375-20.390625 37.34375-44.933593 69.285156-71.058593 92.539062v-144.371094c7.429687-3.804687 13.820312-8.871093 18.65625-15 2.867187-3.632812 2.867187-8.757812 0-12.390624-4.757813-6.03125-11.175782-11.101563-18.65625-14.929688v-11.257812c18.335937-20.910157 28.941406-45.078126 28.707031-66.097657-.0625-5.4375-4.453125-9.828125-9.890625-9.890625-.226563-.003906-.453125-.003906-.683594-.003906-5.851562 0-11.945312.847656-18.132812 2.441406v-153.453125c39.730468 10.578125 69.929687 30.117188 90.171874 58.484375 34.941407 48.957032 38.523438 124.925782 9.828126 208.429688-1.796876 5.222656.984374 10.910156 6.207031 12.707031 1.074219.371094 2.171875.546875 3.25.546875 4.152343 0 8.03125-2.609375 9.457031-6.753906 14.214844-41.367188 21.214844-82.761719 20.242188-119.714844zm-159.15625 287.082031c-20.824219 14.378907-41.160157 21.886719-59.667969 21.886719-18.632813 0-38.972657-7.5625-59.664063-21.847656v-153.574219c1.164063.210937 2.339844.402344 3.527344.5625-2.808594 7.328125-3.902344 14.890625-3.0625 22.019531.542969 4.59375 4.167969 8.21875 8.761719 8.761719 13.59375 1.597656 28.453125-3.753906 40.4375-14.390625v16.390625c0 5.519531 4.476562 10 10 10 5.523437 0 10-4.480469 10-10v-16.394531c10.582031 9.394531 23.410156 14.671875 35.625 14.671875 1.617187 0 3.226562-.09375 4.8125-.28125 4.597656-.539063 8.222656-4.164063 8.761719-8.757813.839843-7.128906-.25-14.6875-3.0625-22.019531 1.1875-.160156 2.363281-.351563 3.527343-.5625v153.535156zm-.757813-220.855469c-4.5625 4.5625-9.433594 8.742188-14.476563 12.421876-3.394531 2.476562-4.878906 6.808593-3.71875 10.839843 1.160157 4.035157 4.714844 6.917969 8.90625 7.214844 5.710938.40625 11.152344 1.597656 16.050782 3.449219.144531.0625.292968.117187.441406.171875 3.683594 1.433593 7.050781 3.234375 9.980469 5.363281-2.9375 2.132812-6.308594 3.941406-9.992188 5.371094-.125.046875-.25.085937-.371093.136718-6.171876 2.34375-13.191407 3.636719-20.492188 3.636719-1.726562 0-3.464844-.074219-5.167969-.21875-3.96875-.332031-7.769531 1.730469-9.652343 5.246094-1.882813 3.519531-1.492188 7.816406.988281 10.941406 3.328125 4.1875 5.722656 8.800781 7 13.3125-5.9375-1.683593-11.996094-5.3125-17.125-10.4375-1.925781-1.929687-3.667969-4.015625-5.171875-6.203125-1.867188-2.710937-4.945313-4.332031-8.238282-4.332031h-7.859374c-.003907 0-.007813 0-.011719 0-.003907 0-.003907 0-.007813 0h-7.863281c-3.289063 0-6.371094 1.621094-8.238281 4.332031-1.503906 2.191406-3.246094 4.277344-5.171875 6.203125-5.128907 5.128907-11.1875 8.757813-17.125 10.4375 1.28125-4.511719 3.671875-9.125 7-13.3125 2.484375-3.125 2.871093-7.421875.988281-10.941406-1.882812-3.515625-5.679688-5.578125-9.652344-5.242187-1.703125.140624-3.441406.214843-5.167968.214843-7.300782 0-14.320313-1.292969-20.492188-3.632812-.121094-.054688-.25-.09375-.375-.144531-3.679688-1.425782-7.050781-3.234376-9.988281-5.367188 2.929687-2.125 6.296875-3.929688 9.980469-5.359375.148437-.058594.296874-.113281.441406-.175781 4.898437-1.851563 10.339844-3.042969 16.050781-3.449219 4.191406-.296875 7.746094-3.179687 8.90625-7.214844 1.160156-4.03125-.324219-8.363281-3.714844-10.839843-5.050781-3.683594-9.921875-7.859376-14.480469-12.421876-14.746093-14.742187-24.925781-32.164062-28.269531-47.71875 4.328125.929688 8.800781 2.410157 13.316407 4.347657.179687.082031.355468.160156.539062.234375 11.554688 5.050781 23.382812 13.210937 33.863281 23.6875.910157.910156 1.796875 1.824218 2.667969 2.75 2.984375 3.167968 7.671875 4.039062 11.597656 2.164062 3.921875-1.878906 6.183594-6.078125 5.585938-10.390625-.851563-6.175781-1.285156-12.546875-1.285156-18.933593 0-27.121094 7.84375-52.457032 20.894531-68.757813 13.050781 16.300781 20.894531 41.636719 20.894531 68.757813 0 6.382812-.433594 12.753906-1.285156 18.9375-.597656 4.308593 1.664062 8.507812 5.589844 10.386718 3.925781 1.878906 8.609374 1.003906 11.59375-2.164062.871093-.925782 1.761718-1.839844 2.667968-2.75 10.476563-10.476563 22.304688-18.632813 33.855469-23.6875.191406-.074219.375-.15625.558594-.238282 4.515625-1.9375 8.984375-3.414062 13.308593-4.34375-3.347656 15.554688-13.527343 32.976563-28.273437 47.71875zm.757813-58.8125c-6.367188 3.214844-12.683594 7.132813-18.804688 11.722657-.710938-36.246094-13.371094-68.789063-34.167969-87.519531-3.804687-3.425782-9.582031-3.425782-13.386719 0-20.796874 18.730468-33.457031 51.273437-34.167968 87.519531-6.125-4.585938-12.441406-8.511719-18.804688-11.730469v-165.539062c18.183594-3.253907 38.074219-4.898438 59.664063-4.898438 21.585937 0 41.472656 1.652344 59.667969 4.914062zm0 0"/></svg>