<svg id="Layer_3" enable-background="new 0 0 64 64" height="512" viewBox="0 0 64 64" width="512" xmlns="http://www.w3.org/2000/svg"><path d="m26 47c-1 0-10 7-10 7l-14-2 21-8" fill="#b8b9b3"/><path d="m26 37c-1 0-10-7-10-7l-14 2 21 8" fill="#b8b9b3"/><circle cx="29" cy="42" fill="#8892a0" r="6"/><circle cx="29" cy="42" fill="#fff" r="2"/><path d="m58 29h-7.816c-7.161 0-14.028 2.845-19.092 7.908l-.092.092 4 4 .142-.142c3.751-3.751 8.838-5.858 14.142-5.858h8.716" fill="#f5b953"/><path d="m54 29h4v6h-4z" fill="#f9d18b"/><path d="m58 55h-7.816c-7.161 0-14.028-2.845-19.092-7.908l-.092-.092 4-4 .142.142c3.751 3.751 8.838 5.858 14.142 5.858h8.716" fill="#f5b953"/><path d="m54 49h4v6h-4z" fill="#f9d18b"/><path d="m55 50h10v4h-10z" fill="#3d98f7" transform="matrix(0 -1 1 0 8 112)"/><path d="m55 30h10v4h-10z" fill="#3d98f7" transform="matrix(0 1 -1 0 92 -28)"/><path d="m29 45c-1.654 0-3-1.346-3-3s1.346-3 3-3 3 1.346 3 3-1.346 3-3 3zm0-4c-.551 0-1 .448-1 1s.449 1 1 1 1-.448 1-1-.449-1-1-1z"/><path d="m29 49c-3.86 0-7-3.141-7-7s3.14-7 7-7 7 3.141 7 7-3.14 7-7 7zm0-12c-2.757 0-5 2.243-5 5s2.243 5 5 5 5-2.243 5-5-2.243-5-5-5z"/><path d="m16 55c-.047 0-.094-.003-.142-.01l-14-2c-.451-.064-.802-.427-.852-.88-.051-.452.211-.883.638-1.045l21-8 .712 1.869-17.385 6.624 9.75 1.393c8.959-6.951 9.916-6.951 10.279-6.951v2c.098 0 .157-.018.16-.019-.831.26-5.506 3.666-9.546 6.808-.176.138-.393.211-.614.211z"/><path d="m22.644 40.935-21-8c-.426-.162-.688-.593-.638-1.045.05-.453.401-.815.852-.88l14-2c.27-.037.542.034.755.201 4.041 3.142 8.716 6.548 9.546 6.808-.002-.001-.061-.019-.159-.019v2c-.363 0-1.32 0-10.278-6.95l-9.75 1.393 17.385 6.623z"/><path d="m58 50h-8.716c-5.608 0-10.882-2.185-14.849-6.15l-.144-.144 1.417-1.412.142.143c3.588 3.586 8.36 5.563 13.434 5.563h8.716z"/><path d="m58 56h-7.816c-7.479 0-14.51-2.912-19.799-8.201l-.092-.092 1.414-1.414.092.092c4.91 4.911 11.44 7.615 18.385 7.615h7.816z"/><path d="m62 58h-4c-.552 0-1-.447-1-1v-10c0-.553.448-1 1-1h4c.552 0 1 .447 1 1v10c0 .553-.448 1-1 1zm-3-2h2v-8h-2z"/><path d="m53 49h2v6h-2z"/><path d="m35.708 41.706-1.417-1.412.142-.143c3.969-3.966 9.243-6.151 14.851-6.151h8.716v2h-8.716c-5.074 0-9.846 1.977-13.435 5.564z"/><path d="m31.707 37.707-1.414-1.414.092-.092c5.288-5.289 12.32-8.201 19.799-8.201h7.816v2h-7.816c-6.945 0-13.474 2.704-18.385 7.615z"/><path d="m62 38h-4c-.552 0-1-.447-1-1v-10c0-.553.448-1 1-1h4c.552 0 1 .447 1 1v10c0 .553-.448 1-1 1zm-3-2h2v-8h-2z"/><path d="m53 29h2v6h-2z"/><path d="m11 53h2v5h-2z"/><path d="m14.256 19.686-1.256.314.314-1.256c.449-1.796 1.377-3.435 2.686-4.744 1.309-1.309 2.948-2.237 4.744-2.686l1.256-.314-.314 1.256c-.449 1.796-1.377 3.435-2.686 4.744-1.309 1.309-2.948 2.237-4.744 2.686z" fill="#669e4f"/><path d="m9.744 19.686 1.256.314-.314-1.256c-.449-1.796-1.377-3.435-2.686-4.744-1.309-1.309-2.948-2.237-4.744-2.686l-1.256-.314.314 1.256c.449 1.796 1.377 3.435 2.686 4.744 1.309 1.309 2.948 2.237 4.744 2.686z" fill="#669e4f"/><g fill="#78b75b"><path d="m12.658 18.683-.658 1.317-.658-1.317c-.883-1.764-1.342-3.71-1.342-5.683 0-1.973.459-3.919 1.342-5.683l.658-1.317.658 1.317c.883 1.764 1.342 3.71 1.342 5.683 0 1.973-.459 3.919-1.342 5.683z"/><path d="m15.106 22.553-3.106-1.553 3.106-1.553c.588-.294 1.236-.447 1.894-.447.658 0 1.306.153 1.894.447l3.106 1.553-3.106 1.553c-.588.294-1.236.447-1.894.447-.658 0-1.306-.153-1.894-.447z"/><path d="m5.106 22.553-3.106-1.553 3.106-1.553c.588-.294 1.236-.447 1.894-.447.658 0 1.306.153 1.894.447l3.106 1.553-3.106 1.553c-.588.294-1.236.447-1.894.447-.658 0-1.306-.153-1.894-.447z"/></g><path d="m12 21c-.379 0-.725-.214-.895-.553l-.658-1.316c-.947-1.894-1.447-4.014-1.447-6.131s.5-4.237 1.447-6.131l.658-1.316c.339-.678 1.45-.678 1.789 0l.658 1.316c.948 1.894 1.448 4.014 1.448 6.131s-.5 4.237-1.447 6.131l-.658 1.316c-.17.339-.516.553-.895.553zm0-12.734c-.656 1.486-1 3.111-1 4.734s.344 3.248 1 4.734c.656-1.486 1-3.111 1-4.734s-.344-3.248-1-4.734z"/><path d="m17 24c-.808 0-1.618-.191-2.341-.553l-3.105-1.553c-.34-.169-.554-.515-.554-.894s.214-.725.553-.895l3.105-1.553c1.448-.723 3.236-.723 4.683 0l3.106 1.553c.339.17.553.516.553.895s-.214.725-.553.895l-3.105 1.553c-.724.361-1.534.552-2.342.552zm-1.448-2.342c.896.447 2 .447 2.896 0l1.316-.658-1.317-.658c-.895-.447-2-.447-2.895 0l-1.316.658z"/><path d="m7 24c-.808 0-1.618-.191-2.341-.553l-3.105-1.553c-.34-.169-.554-.515-.554-.894s.214-.725.553-.895l3.105-1.553c1.448-.723 3.236-.723 4.683 0l3.106 1.553c.339.17.553.516.553.895s-.214.725-.553.895l-3.105 1.553c-.724.361-1.534.552-2.342.552zm-1.448-2.342c.896.447 2 .447 2.896 0l1.316-.658-1.317-.658c-.895-.447-2-.447-2.895 0l-1.316.658z"/><path d="m13 21c-.262 0-.517-.103-.707-.293-.249-.248-.348-.608-.263-.949l.314-1.256c.493-1.971 1.512-3.772 2.949-5.209 1.437-1.438 3.238-2.457 5.209-2.949l1.255-.313c.34-.087.701.014.95.263.249.248.348.608.263.949l-.314 1.256c-.493 1.971-1.512 3.772-2.949 5.209-1.437 1.438-3.238 2.457-5.208 2.948l-1.256.314c-.08.02-.162.03-.243.03zm7.614-8.614c-1.474.435-2.817 1.231-3.907 2.321-1.089 1.09-1.887 2.434-2.321 3.907 1.473-.435 2.817-1.231 3.907-2.321 1.089-1.09 1.887-2.434 2.321-3.907z"/><path d="m11 21c-.081 0-.163-.01-.243-.03l-1.256-.314c-1.971-.491-3.771-1.511-5.208-2.948s-2.457-3.238-2.949-5.209l-.314-1.257c-.085-.341.015-.701.263-.949.249-.249.611-.35.95-.263l1.256.314c1.97.491 3.771 1.511 5.208 2.948s2.457 3.238 2.949 5.209l.314 1.256c.085.341-.015.701-.263.949-.19.191-.445.294-.707.294zm-7.614-8.614c.435 1.474 1.232 2.817 2.321 3.907 1.09 1.09 2.434 1.887 3.907 2.321-.435-1.474-1.232-2.817-2.321-3.907-1.09-1.09-2.434-1.887-3.907-2.321z"/><path d="m11 21h2v27h-2z"/></svg>