<svg height="512pt" viewBox="0 -66 512 512" width="512pt" xmlns="http://www.w3.org/2000/svg"><g fill-rule="evenodd"><path d="m179.332031 300v-146.941406c-2.75-7.195313-4.144531-14.1875-4.074219-20.53125 1.328126-.011719 2.691407.035156 4.074219.152344v-92.679688h-153.332031v260zm0 0" fill="#fd4848"/><path d="m466 10h-420c-11 0-20 9-20 20v10h460v-10c0-11-9-20-20-20zm0 0" fill="#e6e6e6"/><path d="m486 300h-460v30h173.425781l9.855469 7.160156h93.4375l9.851562-7.160156h173.429688zm0 0" fill="#e6e6e6"/><path d="m199.425781 330h-189.425781v20c0 11 9 20 20 20h452c11 0 20-9 20-20v-20h-189.429688l-9.851562 7.160156h-93.4375zm0 0" fill="#b3b3b3"/><path d="m179.332031 40v92.675781c15.570313 1.277344 34.242188 10.597657 50.082031 26.4375.804688.804688 1.589844 1.617188 2.363282 2.433594-.742188-5.371094-1.132813-10.949219-1.132813-16.664063 0-29.222656 10.199219-54.738281 25.355469-68.390624 15.160156 13.652343 25.359375 39.167968 25.359375 68.390624 0 5.714844-.394531 11.292969-1.132813 16.664063.769532-.816406 1.554688-1.628906 2.359376-2.433594 15.84375-15.839843 34.515624-25.160156 50.082031-26.433593v-92.679688zm0 0" fill="#ffba4a"/><path d="m256 76.496094c-15.160156 13.648437-25.359375 39.164062-25.359375 68.386718 0 5.71875.394531 11.292969 1.132813 16.664063-.769532-.816406-1.554688-1.628906-2.359376-2.429687-15.84375-15.84375-34.515624-25.164063-50.082031-26.4375-1.382812-.113282-2.746093-.164063-4.074219-.152344-.074218 6.34375 1.324219 13.335937 4.074219 20.53125 4.316407 11.296875 11.96875 23.089844 22.511719 33.628906 4.125 4.125 8.441406 7.808594 12.847656 11.023438-14.097656 1-26.199218 7.003906-32.949218 15.5625 7.410156 9.390624 21.261718 15.710937 37.128906 15.710937 1.664062 0 3.308594-.070313 4.925781-.207031-6.28125 7.90625-9.160156 17.09375-8.234375 24.933594 9.148438 1.078124 20.132812-3.023438 28.773438-11.664063 1.972656-1.972656 3.710937-4.070313 5.203124-6.242187h12.921876c1.492187 2.171874 3.230468 4.269531 5.203124 6.242187 8.640626 8.640625 19.625 12.742187 28.777344 11.664063.921875-7.839844-1.957031-17.027344-8.238281-24.933594 1.617187.136718 3.261719.207031 4.925781.207031 15.867188 0 29.71875-6.320313 37.132813-15.710937-6.753907-8.558594-18.855469-14.5625-32.953125-15.5625 4.40625-3.214844 8.722656-6.898438 12.851562-11.023438 10.539063-10.539062 18.191406-22.332031 22.507813-33.628906 2.75-7.195313 4.148437-14.1875 4.078125-20.53125-1.332032-.011719-2.695313.035156-4.078125.152344-15.566407 1.273437-34.238281 10.59375-50.082031 26.4375-.800782.800781-1.589844 1.613281-2.359376 2.429687.742188-5.371094 1.132813-10.945313 1.132813-16.664063-.003906-29.222656-10.203125-54.738281-25.359375-68.386718zm0 0" fill="#ffe7c3"/><path d="m201.84375 186.6875c-10.542969-10.542969-18.195312-22.332031-22.511719-33.628906v146.941406h153.332031l.003907-146.941406c-4.320313 11.296875-11.972657 23.089844-22.511719 33.628906-4.125 4.125-8.445312 7.808594-12.851562 11.023438 14.101562 1 26.199218 7.003906 32.953124 15.5625-7.410156 9.390624-21.261718 15.710937-37.128906 15.710937-1.667968 0-3.308594-.070313-4.925781-.207031 6.277344 7.90625 9.160156 17.09375 8.234375 24.933594-9.148438 1.078124-20.136719-3.023438-28.773438-11.664063-1.976562-1.972656-3.710937-4.074219-5.207031-6.242187h-12.917969c-1.492187 2.171874-3.230468 4.269531-5.203124 6.242187-8.640626 8.640625-19.625 12.742187-28.777344 11.664063-.921875-7.84375 1.957031-17.03125 8.234375-24.933594-1.613281.132812-3.257813.207031-4.925781.207031-15.863282 0-29.71875-6.320313-37.128907-15.714844 6.753907-8.554687 18.855469-14.5625 32.953125-15.5625-4.402344-3.210937-8.722656-6.894531-12.847656-11.019531zm0 0" fill="#ffba4a"/><path d="m332.667969 300v-146.941406c2.75-7.195313 4.144531-14.1875 4.074219-20.53125-1.328126-.011719-2.691407.035156-4.074219.152344v-92.679688h153.332031v260zm0 0" fill="#73ca5b"/></g><path d="m85.753906 20h.269532c5.523437 0 10-4.476562 10-10s-4.476563-10-10-10h-.269532c-5.519531 0-10 4.476562-10 10s4.476563 10 10 10zm0 0"/><path d="m502 320h-6v-290c0-16.542969-13.457031-30-30-30h-340.011719c-5.519531 0-10 4.476562-10 10s4.480469 10 10 10h340.011719c5.515625 0 10 4.484375 10 10h-440c0-5.515625 4.484375-10 10-10h11.023438c5.523437 0 10-4.476562 10-10s-4.476563-10-10-10h-11.023438c-16.542969 0-30 13.457031-30 30v290h-6c-5.523438 0-10 4.480469-10 10v20c0 16.542969 13.457031 30 30 30h452c16.542969 0 30-13.457031 30-30v-20c0-5.523438-4.476562-10-10-10zm-26-30h-21.035156c-5.519532 0-10 4.476562-10 10s4.480468 10 10 10h21.035156v10h-163.429688c-2.109374 0-4.167968.667969-5.875 1.910156l-7.226562 5.25h-86.9375l-7.226562-5.25c-1.707032-1.242187-3.765626-1.910156-5.878907-1.910156h-163.425781v-10h350c5.523438 0 10-4.476562 10-10s-4.476562-10-10-10h-43.332031v-135.105469c2.738281-7.679687 4.152343-15.292969 4.074219-22.476562-.035157-3.257813-1.636719-6.132813-4.074219-7.933594v-74.484375h133.332031zm-153.332031-95.398438c-1.386719-.722656-2.796875-1.417968-4.265625-2.039062 1.472656-1.511719 2.890625-3.054688 4.265625-4.613281zm-34.972657 5.867188c1.160157 4.035156 4.714844 6.917969 8.902344 7.214844 7.023438.496094 13.507813 2.484375 18.628906 5.585937-5.984374 3.625-13.800781 5.714844-22.097656 5.714844-1.371094 0-2.746094-.058594-4.089844-.171875-3.972656-.332031-7.769531 1.726562-9.652343 5.242188-1.882813 3.519531-1.496094 7.816406.984375 10.941406 1.722656 2.164062 3.117187 4.46875 4.152344 6.785156-3.449219-1.535156-6.847657-3.863281-9.789063-6.808594-1.503906-1.5-2.863281-3.128906-4.039063-4.839844-1.867187-2.710937-4.945312-4.328124-8.238281-4.328124h-12.917969c-3.289062 0-6.371093 1.617187-8.234374 4.328124-1.175782 1.710938-2.535157 3.339844-4.039063 4.839844-2.941406 2.945313-6.34375 5.273438-9.789063 6.808594 1.03125-2.316406 2.429688-4.621094 4.148438-6.785156 2.480469-3.125 2.867188-7.421875.984375-10.941406-1.882813-3.515626-5.667969-5.566407-9.652344-5.242188-1.339843.113281-2.71875.171875-4.085937.171875-8.296875 0-16.113282-2.089844-22.101563-5.714844 5.125-3.101562 11.609375-5.089843 18.628907-5.585937 4.1875-.296875 7.746093-3.179688 8.90625-7.214844 1.15625-4.035156-.328126-8.363281-3.71875-10.839844-4.066407-2.964844-7.996094-6.335937-11.671876-10.015625-9.144531-9.140625-16.089843-19.53125-20.023437-29.5-.125-.410156-.285156-.804687-.460937-1.191406-.597657-1.605469-1.121094-3.199219-1.554688-4.773437 11.6875 3.21875 24.480469 11.050781 35.472656 22.039062.730469.730469 1.441406 1.46875 2.140625 2.210938 2.984375 3.167968 7.671875 4.046874 11.597657 2.171874 3.929687-1.878906 6.191406-6.078124 5.59375-10.390624-.6875-4.992188-1.035157-10.140626-1.035157-15.296876 0-20.886718 5.730469-40.417968 15.355469-53.5 9.625 13.082032 15.355469 32.613282 15.355469 53.5 0 5.160157-.347657 10.304688-1.039063 15.292969-.59375 4.308594 1.664063 8.511719 5.589844 10.390625 3.917969 1.875 8.609375 1.003906 11.59375-2.160156.703125-.746094 1.421875-1.488281 2.15625-2.222656 10.988281-10.984375 23.777344-18.820313 35.464844-22.035156-.433594 1.574218-.957032 3.171874-1.554688 4.777343-.175781.386719-.332031.777344-.457031 1.1875-3.933594 9.964844-10.878906 20.355469-20.023437 29.5-3.675782 3.675781-7.601563 7.046875-11.671876 10.015625-3.390624 2.476563-4.878906 6.804688-3.71875 10.839844zm34.972657-76.304688c-10.421875 2.414063-21.214844 7.441407-31.445313 14.632813-1.292968-28.871094-11.753906-54.625-28.53125-69.734375-3.804687-3.425781-9.578125-3.425781-13.382812 0-16.777344 15.109375-27.238282 40.863281-28.527344 69.734375-10.234375-7.191406-21.027344-12.21875-31.449219-14.632813v-74.164062h133.335938zm-129.074219 68.398438c-1.464844.621094-2.878906 1.316406-4.261719 2.039062v-6.652343c1.371094 1.558593 2.789063 3.101562 4.261719 4.613281zm-4.261719 39.453125c5.476563 2.871094 11.625 4.929687 18.175781 6.027344-1.851562 5.628906-2.519531 11.378906-1.878906 16.835937.542969 4.597656 4.167969 8.222656 8.761719 8.761719 1.371094.164063 2.757813.242187 4.152344.242187 9.335937 0 19.066406-3.570312 27.457031-10.019531v9.640625c0 5.523438 4.476562 10 10 10s10-4.476562 10-10v-9.65625c9.644531 7.414063 21.054688 11.03125 31.609375 9.792969 4.59375-.539063 8.21875-4.164063 8.761719-8.761719.640625-5.457031-.027344-11.207031-1.878906-16.835937 6.550781-1.097657 12.699218-3.15625 18.175781-6.027344v57.984375h-133.335938zm-20-182.015625v74.484375c-2.441406 1.800781-4.039062 4.675781-4.074219 7.933594-.082031 7.183593 1.335938 14.800781 4.074219 22.480469v135.101562h-133.332031v-240zm322.667969 300c0 5.515625-4.484375 10-10 10h-452c-5.515625 0-10-4.484375-10-10v-10h176.179688l7.226562 5.25c1.707031 1.242188 3.765625 1.910156 5.875 1.910156h93.4375c2.113281 0 4.167969-.667968 5.878906-1.910156l7.226563-5.25h176.179687v10zm0 0"/><path d="m425.964844 310h.269531c5.523437 0 10-4.476562 10-10s-4.476563-10-10-10h-.269531c-5.519532 0-10 4.476562-10 10s4.476562 10 10 10zm0 0"/></svg>