<?xml version="1.0" encoding="iso-8859-1"?>
<!-- Generator: Adobe Illustrator 16.0.0, SVG Export Plug-In . SVG Version: 6.00 Build 0)  -->
<!DOCTYPE svg PUBLIC "-//W3C//DTD SVG 1.1//EN" "http://www.w3.org/Graphics/SVG/1.1/DTD/svg11.dtd">
<svg version="1.1" id="Capa_1" xmlns="http://www.w3.org/2000/svg" xmlns:xlink="http://www.w3.org/1999/xlink" x="0px" y="0px"
	 width="45.415px" height="45.416px" viewBox="0 0 45.415 45.416" style="enable-background:new 0 0 45.415 45.416;"
	 xml:space="preserve">
<g>
	<g>
		<path d="M45.414,38.156c-0.015-0.192-0.048-0.395-0.102-0.594c-0.251-0.926-0.996-1.689-1.918-1.953
			c-1.054-0.304-2.05-0.022-2.747,0.592c-0.555,0.488-1.344,0.457-1.905-0.025c-0.501-0.43-1.151-0.691-1.864-0.691
			s-1.361,0.262-1.861,0.691c-0.487,0.42-1.25,0.42-1.738,0c-0.5-0.432-1.147-0.691-1.86-0.691s-1.365,0.26-1.866,0.691
			c-0.57,0.49-1.362,0.49-1.932,0c-0.502-0.432-1.152-0.691-1.866-0.691c-0.712,0-1.362,0.26-1.863,0.688
			c-0.543,0.466-1.315,0.466-1.859,0c-0.501-0.429-1.151-0.688-1.863-0.688c-0.713,0-1.364,0.26-1.866,0.691
			c-0.571,0.49-1.361,0.49-1.933,0c-0.501-0.432-1.152-0.691-1.866-0.691c-0.709,0-1.356,0.258-1.855,0.684
			c-0.536,0.459-1.301,0.459-1.837,0c-0.499-0.426-1.146-0.684-1.855-0.684c-0.714,0-1.365,0.26-1.866,0.691
			c-0.56,0.48-1.351,0.514-1.904,0.023c-0.697-0.613-1.694-0.895-2.748-0.592c-0.922,0.266-1.667,1.029-1.917,1.957
			c-0.054,0.198-0.087,0.4-0.101,0.592l-0.033,2.938c0,0.9,0.751,1.609,1.651,1.609h41.753c0.899,0,1.623-0.709,1.623-1.609
			L45.414,38.156z"/>
		<path d="M28.929,25.926c-0.342,0.625-0.114,1.409,0.512,1.75c0.625,0.343,1.409,0.112,1.75-0.513
			c0.342-0.625,0.667-2.42,0.042-2.762C30.608,24.06,29.271,25.301,28.929,25.926z"/>
		<path d="M30.128,18.624c0.6,0.384,1.396,0.208,1.78-0.391c0.385-0.6,0.208-1.397-0.392-1.782c-0.6-0.384-2.369-0.831-2.752-0.23
			C28.381,16.822,29.526,18.24,30.128,18.624z"/>
		<path d="M29.707,12.657c0.671,0.24,1.408-0.108,1.648-0.779c0.241-0.671,0.281-2.494-0.39-2.735
			c-0.67-0.24-1.798,1.194-2.038,1.864C28.688,11.678,29.037,12.417,29.707,12.657z"/>
		<path d="M36.36,21.846c0.499-0.508,1.299-2.148,0.791-2.647s-2.133,0.332-2.632,0.84c-0.499,0.508-0.491,1.325,0.018,1.824
			C35.046,22.363,35.862,22.355,36.36,21.846z"/>
		<path d="M34.742,31.21c0.713,0,1.29-0.578,1.29-1.29c0-0.714-0.577-2.443-1.29-2.443c-0.712,0-1.289,1.729-1.289,2.443
			C33.454,30.633,34.03,31.21,34.742,31.21z"/>
		<path d="M40.517,28.529c0.693,0.164,1.388-0.267,1.551-0.959c0.163-0.693-0.267-1.389-0.96-1.552
			c-0.692-0.163-2.51,0.003-2.674,0.696C38.271,27.406,39.822,28.365,40.517,28.529z"/>
		<path d="M11.172,30.863l16.559-8.549L20.394,2.712L2.291,7.136C0.467,7.819-0.458,9.85,0.225,11.674l6.41,17.124
			C7.317,30.621,9.349,31.546,11.172,30.863z M8.25,17.994l1.411-0.528c-0.134-0.125-0.291-0.304-0.474-0.554
			c-0.564-0.77-1.166-1.91-0.978-2.047C8.36,14.754,8.98,15.33,9.51,15.961c0.002-0.133,0.007-0.276,0.016-0.429
			c0.09-1.643,0.537-3.818,0.937-3.796c0.356,0.02,0.557,1.771,0.533,3.313c0.068-0.088,0.138-0.178,0.213-0.271
			c1.408-1.749,3.635-3.807,4.062-3.463c0.365,0.294-0.708,2.252-1.907,3.907c2.549-0.908,5.893-1.598,6.119-0.995
			c0.225,0.603-2.751,2.279-5.269,3.268c1.991,0.46,4.086,1.232,4.003,1.694c-0.096,0.539-3.127,0.45-5.337,0.055
			c-0.118-0.021-0.23-0.042-0.339-0.064c1.03,1.147,2.029,2.6,1.773,2.849c-0.288,0.279-2.052-1.069-3.199-2.248
			c-0.107-0.11-0.205-0.214-0.293-0.314c0.015,0.824-0.075,1.666-0.262,1.682c-0.232,0.019-0.526-1.235-0.606-2.187
			c-0.026-0.308-0.026-0.546-0.006-0.728l-1.411,0.528c-0.211,0.079-0.447-0.028-0.526-0.239C7.931,18.309,8.038,18.073,8.25,17.994
			z"/>
	</g>
</g>
<g>
</g>
<g>
</g>
<g>
</g>
<g>
</g>
<g>
</g>
<g>
</g>
<g>
</g>
<g>
</g>
<g>
</g>
<g>
</g>
<g>
</g>
<g>
</g>
<g>
</g>
<g>
</g>
<g>
</g>
</svg>
