<?xml version="1.0" encoding="iso-8859-1"?>
<!-- Generator: Adobe Illustrator 16.0.0, SVG Export Plug-In . SVG Version: 6.00 Build 0)  -->
<!DOCTYPE svg PUBLIC "-//W3C//DTD SVG 1.1//EN" "http://www.w3.org/Graphics/SVG/1.1/DTD/svg11.dtd">
<svg version="1.1" id="Capa_1" xmlns="http://www.w3.org/2000/svg" xmlns:xlink="http://www.w3.org/1999/xlink" x="0px" y="0px"
	 width="45.702px" height="45.703px" viewBox="0 0 45.702 45.703" style="enable-background:new 0 0 45.702 45.703;"
	 xml:space="preserve">
<g>
	<g>
		<circle cx="31.636" cy="9.971" r="4.423"/>
		<path d="M42.694,33.609h-2.243c0.935-0.762,1.342-2.041,0.973-3.232l-4.147-13.383c-0.491-1.587-2.178-2.477-3.764-1.985
			c-0.496,0.154-0.887,0.462-1.262,0.77c-0.084,0.069-9.72,8.311-9.826,8.452l-1.157-1.647c0.173-0.024,0.388-0.075,0.664-0.167
			c0.852-0.283,1.935-0.83,1.866-1.038c-0.056-0.168-0.846-0.063-1.597,0.132c0.071-0.103,0.145-0.215,0.222-0.337
			c0.825-1.31,1.667-3.223,1.349-3.424c-0.284-0.179-1.391,1.055-2.213,2.252c-0.004-0.104-0.009-0.212-0.016-0.324
			c-0.128-2.109-0.717-4.902-1.231-4.871c-0.44,0.027-0.684,2.114-0.664,4.037c-1.462-2.085-3.654-4.436-4.155-4.096
			c-0.501,0.339,0.87,3.247,2.264,5.377c-1.779-0.731-3.808-1.279-3.996-0.88c-0.22,0.466,2.155,2.048,4.067,2.95
			c0.102,0.048,0.2,0.093,0.295,0.135c-1.416,0.32-2.973,0.89-2.913,1.221c0.068,0.371,2.158,0.297,3.68,0.018
			c0.142-0.027,0.273-0.054,0.396-0.082c-0.46,0.625-0.85,1.319-0.715,1.433c0.167,0.142,1.078-0.662,1.657-1.348
			c0.188-0.223,0.315-0.405,0.402-0.557l1.398,1.991c-0.243,0.793-0.088,1.688,0.491,2.366c0.496,0.58,1.199,0.877,1.906,0.877
			c0.577,0,1.156-0.198,1.628-0.603c1.626-1.391,6.505-5.564,6.505-5.564l2.366,7.631c0,0-5.646,2.847-5.728,2.898
			c-1.439,0.905-2.093,2.617-1.623,4.252c0.47,1.637,1.928,2.748,3.639,2.748h11.482c1.66,0,3.008-1.341,3.008-3.002
			C45.702,34.951,44.354,33.609,42.694,33.609z"/>
		<path d="M18.775,35.281c-0.308,0-0.625,0.015-0.905,0.041v-0.556c0.12,0.058,0.27,0.115,0.477,0.173
			c0.641,0.182,1.532,0.295,1.576,0.139c0.036-0.125-0.492-0.39-1.034-0.582c0.086-0.033,0.179-0.071,0.276-0.114
			c1.05-0.461,2.363-1.284,2.25-1.54c-0.1-0.229-1.292,0.068-2.293,0.462c0.041-0.065,0.083-0.134,0.125-0.206
			c0.798-1.348,1.597-3.305,1.269-3.499c-0.281-0.167-1.297,1.013-2.085,2.2c-0.03-1.887-0.397-4.239-0.846-4.239
			c-0.448,0-0.815,2.353-0.846,4.239c-0.788-1.188-1.804-2.367-2.085-2.2c-0.329,0.194,0.471,2.151,1.269,3.499
			c0.042,0.072,0.084,0.141,0.125,0.206c-1.001-0.394-2.194-0.688-2.294-0.462c-0.112,0.256,1.2,1.079,2.25,1.54
			c0.098,0.043,0.19,0.081,0.276,0.114c-0.542,0.192-1.07,0.457-1.034,0.582c0.044,0.156,0.941,0.043,1.582-0.139
			c0.207-0.058,0.362-0.115,0.482-0.173v0.627c-1.481,0.226-2.725,0.774-3.559,1.466c-1.211-1.223-3.503-2.144-6.133-2.144
			c-0.262,0-0.531,0.009-0.786,0.026l-0.01-0.002v-1.742c0.2,0.096,0.455,0.191,0.799,0.289c1.063,0.299,2.545,0.488,2.618,0.229
			c0.059-0.209-0.814-0.647-1.713-0.966c0.144-0.057,0.297-0.119,0.459-0.189c1.743-0.765,3.919-2.13,3.733-2.555
			c-0.166-0.378-2.143,0.115-3.804,0.766c0.068-0.107,0.137-0.222,0.208-0.341c1.323-2.233,2.649-5.481,2.104-5.804
			c-0.466-0.275-2.152,1.679-3.458,3.648c-0.05-3.127-0.66-7.03-1.403-7.03c-0.744,0-1.353,3.901-1.403,7.03
			c-1.306-1.97-2.992-3.926-3.458-3.648c-0.544,0.322,0.781,3.568,2.104,5.804c0.071,0.119,0.14,0.232,0.207,0.341
			c-1.661-0.65-3.638-1.144-3.804-0.766c-0.186,0.425,1.99,1.79,3.732,2.555c0.162,0.07,0.315,0.135,0.458,0.19
			c-0.898,0.317-1.774,0.756-1.715,0.965c0.073,0.259,1.557,0.069,2.619-0.229c0.344-0.098,0.596-0.193,0.796-0.289
			c0,0,0,1.812,0.007,1.845c-3.066,0.461-5.342,2.112-5.342,3.81c0,2.002,24.327,2.002,24.327,0
			C24.892,36.652,22.153,35.281,18.775,35.281z"/>
	</g>
</g>
<g>
</g>
<g>
</g>
<g>
</g>
<g>
</g>
<g>
</g>
<g>
</g>
<g>
</g>
<g>
</g>
<g>
</g>
<g>
</g>
<g>
</g>
<g>
</g>
<g>
</g>
<g>
</g>
<g>
</g>
</svg>
