<svg height="511pt" viewBox="-2 0 511 511.99979" width="511pt" xmlns="http://www.w3.org/2000/svg"><g fill-rule="evenodd"><path d="m253.625 223.1875-56.449219 35.332031-9.578125 49.175781 113.847656-28.328124.671876-56.488282zm0 0" fill="#349ecf"/><path d="m82.960938 31.667969-45.269532 57.917969c-21.292968 32.558593-14.402344 76.914062 16.78125 101.292968.417969.335938.808594.644532 1.230469.953125l.167969-.222656 18.910156-3.335937-1.484375-18.96875c-.421875-.308594-.839844-.617188-1.234375-.925782-20.503906-16.027344-24.175781-45.894531-8.152344-66.40625l37.402344-47.859375c16.023438-20.480469 45.886719-24.152343 66.390625-8.125 15.914063 12.441407 21.683594 33.234375 15.941406 51.53125l4.679688 17.511719 18.542969.613281.226562.167969c14.847656-31.351562 6.582031-70.132812-21.796875-92.351562-31.179687-24.351563-75.890625-20.34375-102.335937 8.207031zm0 0" fill="#349ecf"/><path d="m302.117188 222.878906-.671876 56.488282c4.792969 5.519531 10.957032 9.804687 17.988282 12.300781 6.863281 1.625 10.617187.167969 12.519531-2.269531 1.316406-1.710938 1.765625-3.898438 1.765625-5.800782l-.054688-32.113281-.027343-32.109375c-.03125-4.652344-2.664063-10.84375-14.316407-8.015625-6.667968 2.382813-12.550781 6.363281-17.203124 11.519531zm0 0" fill="#e6e6e6"/><path d="m42.480469 208.753906 55.664062 61 82.390625 46.933594 7.0625-8.992188 66.027344-84.507812 28.15625-36.0625c2.410156-3.054688 3.867188-4.175781 6.332031-12.332031l11.570313-38.050781c.921875-3.082032 1.511718-6.246094-1.007813-8.238282l-28.519531-22.273437c-2.523438-1.988281-5.351562-.449219-8.210938 1.007812l-28.292968 14.234375c-11.765625 5.941406-11.824219 5.855469-20.648438-1.035156l-6.132812-4.792969-23.226563-18.128906-17.535156-13.730469c-8.882813-6.949218-22.046875-5.015625-29.304687 4.257813l-63.507813 81.261719-17.425781 22.300781zm0 0" fill="#e6e6e6"/><path d="m117.417969 204.859375c-1.316407 11.851563 3.589843 24.351563 14.035156 32.503906 15.660156 12.246094 37.851563 10.058594 49.53125-4.902343 3.558594-4.539063 5.742187-9.75 6.613281-15.132813l4.3125-30.652344c.867188-7.480469 0 0 2.015625-15.914062.335938-6.949219-5.042969-12.328125-13.726562-9.527344l-9.382813 3.53125-4.679687 1.765625-28.828125 11.488281c-5.015625 2.15625-9.523438 5.519531-13.082032 10.058594-3.921874 5.015625-6.164062 10.816406-6.808593 16.78125zm0 0" fill="#349ecf"/><path d="m41.640625 243.050781 105.976563 82.828125.058593.054688 18.992188 14.851562c3.390625 2.664063 8.347656 2.046875 11.011719-1.34375l7.285156-9.359375c2.660156-3.390625 2.042968-8.351562-1.347656-11.011719l-2.941407-2.296874-138.195312-108.019532-2.941407-2.296875c-3.390624-2.660156-8.347656-2.042969-11.011718 1.347657l-7.28125 9.355468c-2.664063 3.390625-2.046875 8.351563 1.34375 11.011719l18.992187 14.824219zm0 0" fill="#349ecf"/><path d="m117.363281 205.140625c-1.203125 11.769531 3.726563 24.125 14.089844 32.222656 6.613281 5.15625 14.402344 7.761719 22.046875 7.902344-.390625-.28125-.78125-.558594-1.148438-.867187-10.449218-8.15625-15.351562-20.652344-14.0625-32.503907.671876-5.96875 2.914063-11.769531 6.835938-16.785156 3.558594-4.539063 8.070312-7.902344 13.082031-10.03125l28.828125-11.515625 4.679688-1.765625 2.15625-.8125c.027344-.082031.027344-.140625.054687-.222656.335938-6.949219-5.042969-12.328125-13.726562-9.527344l-8.910157 3.363281-.472656.167969-4.679687 1.761719-28.828125 11.488281c-5.015625 2.160156-9.523438 5.519531-13.082032 10.058594-3.921874 5.015625-6.164062 10.816406-6.808593 16.785156-.027344.085937-.027344.199219-.054688.28125zm0 0" fill="#4275ab"/><path d="m52.230469 216.375-9.75-7.621094-2.941407-2.296875c-3.390624-2.660156-8.347656-2.042969-11.011718 1.347657l-7.28125 9.355468c-2.664063 3.390625-2.046875 8.351563 1.34375 11.011719l12.691406 9.894531c-3.417969-2.664062-4.007812-7.59375-1.375-11.011718l7.3125-9.332032c1.652344-2.132812 4.203125-3.167968 6.722656-3 1.515625.113282 3 .644532 4.289063 1.652344zm0 0" fill="#4275ab"/><path d="m253.625 223.1875-66.027344 84.507812.335938-.113281 18.125-4.484375 62.386718-79.828125.140626-.195312-14.679688.113281zm0 0" fill="#4275ab"/><path d="m80.523438 34.75-40.453126 51.78125-2.378906 3.054688c-18.769531 28.691406-15.632812 66.546874 6.695313 91.792968v.027344c1.230469 1.375 2.519531 2.71875 3.863281 4.035156-16.640625-24.824218-17.480469-58.054687-.585938-83.890625l45.242188-57.917969c26.476562-28.523437 71.15625-32.558593 102.335938-8.179687 2.214843 1.707031 4.289062 3.53125 6.25 5.433594-1.792969-2.6875-3.785157-5.265625-5.941407-7.730469-3.054687-3.476562-6.46875-6.726562-10.25-9.695312-31.183593-24.351563-75.894531-20.34375-102.339843 8.207031zm0 0" fill="#4275ab"/><path d="m73.269531 169.359375-17.398437 22.25-.167969.222656-.027344.027344-13.195312 16.894531.167969.140625 9.582031 7.480469 3.558593 2.804688 13.363282-17.121094 17.453125-22.304688 67.878906-86.890625c3.359375-4.3125 8.011719-7.03125 12.914063-8.011719h.054687l-1.34375-1.066406c-8.882813-6.949218-22.046875-5.015625-29.304687 4.257813l-63.507813 81.261719zm0 0" fill="#adafb3"/><path d="m31.695312 504.589844h443.609376c13.082031 0 23.785156-10.703125 23.785156-23.789063 0-13.085937-10.703125-23.789062-23.785156-23.789062h-443.609376c-13.082031 0-23.785156 10.703125-23.785156 23.789062 0 13.085938 10.703125 23.789063 23.785156 23.789063zm0 0" fill="#a66d30"/><path d="m7.910156 480.800781c0 13.085938 10.703125 23.789063 23.785156 23.789063h42.609376c-13.082032 0-23.785157-10.703125-23.785157-23.789063 0-13.085937 10.703125-23.789062 23.785157-23.789062h-42.609376c-13.082031 0-23.785156 10.703125-23.785156 23.789062zm0 0" fill="#6e3e0b"/><path d="m95.371094 380.292969c3.335937 29.195312 33.308594 49.929687 48.578125 30.316406l.054687-.082031c.671875-.839844 1.261719-1.710938 1.765625-2.605469 9.832031-16.867187-6.414062-38.472656-41.515625-36.539063-5.742187.308594-9.246094 2.773438-8.882812 8.910157zm0 0" fill="#8fde56"/><path d="m95.371094 380.292969c3.335937 29.195312 33.308594 49.929687 48.578125 30.316406l.054687-.082031c.53125-.671875.980469-1.34375 1.429688-2.046875-15.828125 5.578125-36.867188-12.804688-39.640625-37.011719 0-.058594 0-.113281 0-.167969-.503907.027344-1.035157.054688-1.542969.082031-5.738281.308594-9.242188 2.773438-8.878906 8.910157zm0 0" fill="#47a831"/><path d="m230.683594 380.292969c-3.335938 29.195312-33.3125 49.929687-48.550782 30.316406l-.082031-.082031c-.644531-.839844-1.234375-1.710938-1.765625-2.605469-9.835937-16.867187 6.414063-38.472656 41.515625-36.539063 5.773438.308594 9.273438 2.773438 8.882813 8.910157zm0 0" fill="#8fde56"/><path d="m230.683594 380.292969c-3.335938 29.195312-33.3125 49.929687-48.550782 30.316406l-.082031-.082031c-.507812-.671875-.984375-1.34375-1.429687-2.046875 15.828125 5.578125 36.867187-12.804688 39.640625-37.011719 0-.058594 0-.113281 0-.167969.503906.027344 1.035156.054688 1.539062.082031 5.773438.308594 9.273438 2.773438 8.882813 8.910157zm0 0" fill="#47a831"/><path d="m291.109375 359.476562c4.480469 39.449219 44.960937 67.441407 65.582031 40.964844l.082032-.113281c.898437-1.148437 1.683593-2.328125 2.382812-3.53125 13.277344-22.78125-8.65625-51.976563-56.085938-49.371094-7.757812.421875-12.492187 3.753907-11.960937 12.050781zm0 0" fill="#8fde56"/><path d="m291.109375 359.476562c4.480469 39.449219 44.960937 67.441407 65.582031 40.964844l.082032-.113281c.703124-.898437 1.347656-1.820313 1.933593-2.746094-21.375 7.480469-49.808593-17.316406-53.535156-50.015625 0-.085937 0-.167968 0-.226562-.699219.03125-1.402344.058594-2.101563.085937-7.757812.421875-12.492187 3.753907-11.960937 12.050781zm0 0" fill="#47a831"/><path d="m473.847656 359.476562c-4.480468 39.449219-44.960937 67.441407-65.582031 40.964844l-.082031-.113281c-.898438-1.148437-1.683594-2.328125-2.382813-3.53125-13.277343-22.78125 8.65625-51.976563 56.085938-49.371094 7.757812.421875 12.492187 3.753907 11.960937 12.050781zm0 0" fill="#8fde56"/><path d="m473.847656 359.476562c-4.480468 39.449219-44.960937 67.441407-65.582031 40.964844l-.082031-.113281c-.703125-.898437-1.347656-1.820313-1.933594-2.746094 21.375 7.480469 49.808594-17.316406 53.535156-50.015625 0-.085937 0-.167968 0-.226562.699219.03125 1.402344.058594 2.101563.085937 7.757812.421875 12.492187 3.753907 11.960937 12.050781zm0 0" fill="#47a831"/></g><path d="m399.792969 262.015625c-8.597657-14.019531-21.730469-23.828125-37.972657-28.371094-7.585937-2.117187-13.695312-2.785156-20.757812-2.945312l-.015625-11.371094c-.03125-5.3125-2.105469-9.84375-5.832031-12.753906-4.339844-3.390625-10.273438-4.207031-17.644532-2.414063-.25.0625-.5.136719-.742187.222656-6.652344 2.375-12.75 6.179688-17.828125 11.078126l-30.117188.207031 18.71875-23.953125c.253907-.328125.5-.628906.738282-.917969 2.652344-3.269531 4.441406-5.835937 6.863281-13.847656l11.578125-38.078125c.804688-2.679688 3.25-10.84375-3.542969-16.207032l-28.492187-22.25c-6.179688-4.878906-12.765625-1.515624-15.929688.101563l-28.492187 14.335937c-3.003907 1.507813-6.382813 3.207032-7.625 3.472657-.921875-.4375-3.140625-2.171875-5.128907-3.726563l-1.433593-1.117187c13.078125-33.804688 2.554687-73.285157-26.269531-95.855469-.003907 0-.003907-.003906-.007813-.003906-36.179687-28.265625-88.613281-21.835938-116.882813 14.332031l-37.398437 47.859375c-27.082031 34.644531-22.308594 84.199219 9.855469 113.125l-4.515625 5.78125c-2.496094-1.117188-5.257813-1.558594-8.0625-1.214844-4.042969.496094-7.648438 2.53125-10.175781 5.746094l-7.265626 9.335938c-5.183593 6.609374-4.019531 16.21875 2.609376 21.425781l144.097656 112.625c2.777344 2.160156 6.074218 3.207031 9.351562 3.203125 4.546875 0 9.046875-2.015625 12.046875-5.867188l7.269531-9.316406c4.445313-5.660156 4.214844-13.507812-.105468-18.917969l1.140625-1.457031 107.265625-26.691406c5.121094 4.902344 11.210937 8.703125 17.863281 11.0625.25.089844.503906.164062.765625.226562 2.5.59375 4.835938.890625 7 .890625 4.226562 0 7.796875-1.132812 10.65625-3.394531 3.710938-2.929688 5.753906-7.46875 5.753906-12.789062l-.011718-10.292969c15.0625 3.253906 26.34375 16.105469 26.34375 31.433593v26.644532c0 4.09375 3.316406 7.410156 7.410156 7.410156s7.410156-3.316406 7.410156-7.410156v-26.644532c0-23.496093-17.890625-43.023437-41.183594-46.503906l-.019531-12.695312c6.652344.175781 11.238281.855468 16.753906 2.394531 28.167969 7.875 38.203125 33.578125 38.203125 55.011719v21.9375c0 4.09375 3.316406 7.410156 7.410156 7.410156s7.410157-3.316406 7.410157-7.410156v-21.9375c.003906-14.761719-3.925781-29.292969-11.0625-40.917969zm-352.535157-173.078125 37.398438-47.859375c13.480469-17.246094 33.640625-26.265625 54.003906-26.265625 14.738282 0 29.585938 4.730469 42.074219 14.484375 22.492187 17.613281 31.441406 47.765625 23.089844 74.558594l-11.789063-9.214844c4.273438-20.25-3.300781-41.617187-19.765625-54.492187-23.761719-18.570313-58.210937-14.355469-76.796875 9.402343l-37.398437 47.855469c-8.96875 11.464844-12.925781 25.792969-11.140625 40.34375 1.542968 12.578125 7.222656 23.960938 16.144531 32.605469l-8.5 10.882812c-25.753906-23.917969-29.351563-64.117187-7.320313-92.300781zm25.011719 69.648438c-5.847656-6.148438-9.566406-14.007813-10.625-22.640626-1.304687-10.617187 1.574219-21.0625 8.105469-29.410156l37.398438-47.855468c7.855468-10.042969 19.605468-15.296876 31.46875-15.296876 8.589843 0 17.246093 2.757813 24.523437 8.441407 9.957031 7.785156 15.457031 19.839843 15.253906 32.160156l-7.71875-6.03125c-5.90625-4.621094-13.328125-6.558594-20.898437-5.453125-1.863282.269531-3.671875.71875-5.417969 1.328125-5.238281 1.835937-9.875 5.15625-13.394531 9.65625l-5.15625 6.597656zm107.003907 147.683593-46.925782-36.664062c-3.226562-2.519531-7.882812-1.949219-10.402344 1.273437-2.519531 3.226563-1.949218 7.882813 1.277344 10.402344l52.429688 40.96875c.109375.09375.207031.191406.320312.277344.070313.054687.144532.089844.214844.136718l2.855469 2.234376c.175781.140624.222656.441406.078125.625l-7.289063 9.335937c-.148437.191406-.457031.195313-.597656.085937l-144.066406-112.597656c-.179688-.140625-.222657-.445312-.074219-.636718l7.265625-9.335938c.070313-.089844.175781-.144531.304687-.160156.1875-.023438.269532.046875.3125.082031l60.398438 47.214844c3.222656 2.515625 7.882812 1.949219 10.402344-1.277344 2.519531-3.222656 1.949218-7.878906-1.273438-10.402344l-51.621094-40.351562 89.761719-114.867188c2.332031-2.980469 5.625-4.914062 9.273438-5.449219 2.640625-.382812 5.226562.011719 7.484375 1.117188.753906.371094 1.472656.820312 2.144531 1.34375l46.917969 36.667969c5.09375 3.980469 8.460937 6.609375 13.382812 6.863281 4.589844.234375 8.554688-1.757812 15.136719-5.0625l28.332031-14.253906.246094-.125c.382812-.195313.867188-.441406 1.300781-.652344l26.050781 20.34375c-.070312.300781-.171874.6875-.320312 1.179688l-11.574219 38.0625c-1.757812 5.8125-2.570312 6.8125-4.1875 8.800781-.277343.34375-.566406.699219-.890625 1.113281zm115.066406-52.425781-.234375 19.714844-87.425781 21.75 50.582031-64.738282 37.355469-.257812zm31.796875 30.914062c-.3125.113282-1.585938.453126-4.609375-.214843-4.714844-1.734375-9.03125-4.496094-12.632813-8.058594l.207031-17.542969.394532-33.023437c3.425781-3.253907 7.507812-5.800781 11.945312-7.441407 3.027344-.6875 4.296875-.347656 4.597656-.238281.070313.167969.183594.554688.1875 1.144531l.027344 32.109376v.007812l.023438 12.738281c-.03125.277344-.050782.554688-.050782.835938 0 .292969.019532.578125.050782.859375l.03125 17.664062c0 .605469-.105469.992188-.171875 1.160156zm0 0"/><path d="m126.890625 243.199219c7.925781 6.199219 17.46875 9.503906 27.257813 9.503906 1.425781 0 2.859374-.070313 4.292968-.214844 11.398438-1.125 21.476563-6.617187 28.375-15.457031 4.207032-5.367188 7.007813-11.769531 8.097656-18.519531.007813-.050781.015626-.101563.019532-.148438l4.316406-30.65625c.007812-.058593.015625-.117187.023438-.175781.417968-3.628906.417968-3.628906.558593-4.652344.144531-1.058594.433594-3.179687 1.449219-11.1875.023438-.191406.039062-.382812.046875-.574218.292969-5.992188-2.054687-11.351563-6.433594-14.707032-4.566406-3.496094-10.59375-4.285156-16.96875-2.230468-.113281.039062-.226562.078124-.335937.117187l-14.066406 5.296875c-.042969.015625-.085938.03125-.128907.050781l-28.828125 11.488281c-.0625.023438-.125.050782-.1875.078126-6.269531 2.695312-11.796875 6.949218-15.992187 12.304687-14.175781 18.152344-10.359375 44.929687 8.503906 59.683594zm3.171875-50.550781c2.679688-3.421876 6.074219-6.042969 10.089844-7.785157l28.664062-11.421875 13.808594-5.203125c1.757812-.535156 2.851562-.371093 3.257812-.058593.40625.308593.652344 1.082031.648438 2-.964844 7.621093-1.246094 9.671874-1.382812 10.699218-.148438 1.078125-.152344 1.089844-.585938 4.851563l-4.292969 30.488281c-.699219 4.257812-2.46875 8.292969-5.125 11.683594-4.390625 5.621094-10.839843 9.117187-18.160156 9.839844-7.453125.734374-14.894531-1.46875-20.960937-6.214844-12.433594-9.726563-15.105469-27.171875-5.960938-38.878906zm0 0"/><path d="m475.304688 449.601562h-85.402344v-34.601562l13.890625-8.34375c6.59375 7.585938 15.195312 11.578125 24.621093 11.578125 3.222657 0 6.539063-.46875 9.902344-1.414063 21.832032-6.140624 39.871094-29.90625 42.894532-56.507812.015624-.121094.023437-.242188.03125-.363281.363281-5.640625-1.03125-10.277344-4.144532-13.78125-3.308594-3.722657-8.289062-5.789063-14.804687-6.140625-29.660157-1.617188-54.058594 8.746094-63.695313 27.074218-4.484375 8.535157-5.171875 17.953126-2.226562 26.722657l-13.878906 8.339843-13.902344-8.347656c2.941406-8.765625 2.253906-18.183594-2.230469-26.714844-9.636719-18.328124-34.046875-28.703124-63.6875-27.074218-6.523437.351562-11.507813 2.421875-14.8125 6.140625-3.113281 3.503906-4.507813 8.140625-4.144531 13.78125.007812.121093.019531.242187.03125.363281 3.023437 26.601562 21.0625 50.367188 42.894531 56.507812 3.363281.945313 6.679687 1.414063 9.902344 1.414063 9.429687-.003906 18.035156-3.996094 24.628906-11.582031l13.910156 8.347656v34.601562h-85.398437c-4.09375 0-7.414063 3.316407-7.414063 7.410157s3.320313 7.410156 7.414063 7.410156h185.621094c9.027343 0 16.375 7.347656 16.375 16.378906s-7.347657 16.378907-16.375 16.378907h-443.609376c-9.027343 0-16.375-7.351563-16.375-16.378907 0-9.03125 7.347657-16.378906 16.375-16.378906h223.75c4.09375 0 7.414063-3.316406 7.414063-7.410156s-3.320313-7.410157-7.414063-7.410157h-85.007812v-27.117187l8.019531-4.816406c5.097657 5.28125 11.53125 8.054687 18.539063 8.054687 2.558594 0 5.191406-.371094 7.863281-1.121094 16.894531-4.734374 30.851563-23.015624 33.183594-43.46875.015625-.121093.027343-.242187.035156-.367187.375-5.859375-1.722656-9.539063-3.550781-11.59375-2.804688-3.15625-6.953125-4.902344-12.316406-5.1875-22.691407-1.246094-41.445313 6.804687-48.9375 21.039063-3.332032 6.324218-4.035157 13.257812-2.238282 19.8125l-8.007812 4.808593-8.003906-4.808593c1.800781-6.546876 1.101562-13.472657-2.222657-19.796876-7.492187-14.242187-26.25-22.316406-48.945312-21.054687-5.347657.289063-9.484375 2.027344-12.289063 5.167969-1.832031 2.050781-3.941406 5.722656-3.59375 11.582031.007813.132813.019532.265625.035156.402344 2.335938 20.4375 16.285157 38.71875 33.175782 43.460937 2.679687.753906 5.320312 1.125 7.886718 1.125 7.007813 0 13.449219-2.769531 18.546876-8.046875l8 4.804688v27.121093h-123.921876c-17.203124 0-31.195312 13.996094-31.195312 31.199219s13.992188 31.199219 31.195312 31.199219h443.609376c17.203124 0 31.195312-13.996094 31.195312-31.199219s-13.992188-31.199219-31.195312-31.199219zm-63.585938-75.605468c5.414062-10.292969 21.308594-20.738282 49.765625-19.171875 2.699219.148437 4.128906.734375 4.535156 1.1875.261719.292969.527344 1.203125.445313 2.820312-2.632813 22.449219-18.390625 39.851563-32.160156 43.722657-6.824219 1.917968-12.679688.65625-17.476563-3.726563l16.6875-10.023437c3.507813-2.109376 4.640625-6.660157 2.535156-10.167969-2.109375-3.507813-6.660156-4.644531-10.171875-2.539063l-16.277344 9.78125c-.613281-3.96875.078126-8 2.117188-11.882812zm-56.359375 11.878906-16.285156-9.777344c-3.511719-2.105468-8.058594-.96875-10.167969 2.539063-2.105469 3.511719-.96875 8.0625 2.539062 10.167969l16.691407 10.019531c-4.796875 4.382812-10.65625 5.648437-17.484375 3.730469-13.765625-3.871094-29.527344-21.269532-32.15625-43.71875-.082032-1.617188.183594-2.53125.441406-2.820313.40625-.457031 1.835938-1.042969 4.542969-1.1875 28.4375-1.5625 44.347656 8.875 49.757812 19.171875 2.039063 3.875 2.730469 7.90625 2.121094 11.875zm-231.082031 17.777344 9.871094 5.929687c-2.585938 1.457031-5.546876 1.703125-8.957032.746094-9.570312-2.6875-20.539062-14.871094-22.429687-30.652344-.011719-.261719-.003907-.464843.011719-.613281.328124-.101562.917968-.230469 1.886718-.28125 20.167969-1.117188 31.464844 6.386719 35.023438 13.15625.78125 1.484375 1.25 3.003906 1.421875 4.535156l-9.195313-5.523437c-3.507812-2.109375-8.0625-.972657-10.167968 2.535156-2.109376 3.507813-.972657 8.0625 2.535156 10.167969zm62.113281-11.726563c3.558594-6.761719 14.851563-14.253906 35.015625-13.144531.957031.054688 1.550781.179688 1.882812.277344.011719.148437.015626.347656.003907.601562-1.882813 15.792969-12.859375 27.988282-22.433594 30.671875-3.398437.957031-6.355469.707031-8.933594-.746093l9.878907-5.933594c3.507812-2.105469 4.644531-6.65625 2.539062-10.167969-2.105469-3.507813-6.65625-4.644531-10.167969-2.539063l-9.210937 5.53125c.171875-1.535156.640625-3.0625 1.425781-4.550781zm0 0"/></svg>