<svg height="512pt" viewBox="0 0 512.00023 512" width="512pt" xmlns="http://www.w3.org/2000/svg"><path d="m290.640625 194.765625c-45.042969 80.167969-59.625 139.945313-41.8125 149.953125 17.816406 10.011719 61.285156-33.539062 106.324219-113.707031 45.042968-80.167969 74.601562-166.597657 56.785156-176.609375-17.8125-10.007813-76.257812 60.195312-121.296875 140.363281zm0 0" fill="#fdd835"/><path d="m411.9375 54.402344c-5.25-2.953125-14.035156 1.074218-24.96875 10.269531 2.972656 27.117187-23.945312 98.9375-61.816406 166.339844-30.433594 54.171875-60.148438 91.617187-81.714844 107.121093 1.226562 3.03125 3.019531 5.253907 5.390625 6.585938 17.816406 10.011719 61.285156-33.539062 106.328125-113.707031 45.039062-80.167969 74.597656-166.601563 56.78125-176.609375zm0 0" fill="#fbc02d"/><path d="m221.359375 194.765625c45.042969 80.167969 59.625 139.945313 41.8125 149.953125-17.816406 10.011719-61.285156-33.539062-106.324219-113.707031-45.042968-80.167969-74.601562-166.597657-56.785156-176.609375 17.8125-10.007813 76.257812 60.195312 121.296875 140.363281zm0 0" fill="#4caf50"/><path d="m221.359375 194.765625c-45.039063-80.167969-103.484375-150.371094-121.296875-140.363281-2.839844 1.59375-4.46875 5.132812-5.03125 10.269531 26.144531 21.988281 64.566406 73.558594 96.328125 130.09375 39.042969 69.488281 55.195313 123.648437 47.203125 143.367187 10.355469 7.441407 18.832031 9.832032 24.609375 6.585938 17.8125-10.007812 3.230469-69.785156-41.8125-149.953125zm0 0" fill="#43a047"/><path d="m164.972656 243.285156c69.84375 39.699219 106.667969 79.683594 96.570313 97.449219-10.097657 17.765625-63.292969 6.585937-133.136719-33.113281-69.84375-39.699219-129.890625-92.882813-119.792969-110.648438 10.097657-17.765625 86.515625 6.613282 156.359375 46.3125zm0 0" fill="#fdd835"/><path d="m164.972656 243.285156c-63.449218-36.0625-132.320312-59.484375-151.96875-50.148437 30.992188 6.0625 77.792969 25.039062 121.96875 50.148437 69.84375 39.699219 106.667969 79.683594 96.570313 97.449219-1.617188 2.847656-4.347657 4.945313-8.070313 6.308594 19.953125 3.863281 33.476563 1.777343 38.070313-6.308594 10.097656-17.765625-26.726563-57.75-96.570313-97.449219zm0 0" fill="#fbc02d"/><path d="m347.027344 243.285156c-69.84375 39.699219-106.667969 79.683594-96.570313 97.449219 10.097657 17.765625 63.292969 6.585937 133.136719-33.113281 69.84375-39.699219 129.890625-92.882813 119.792969-110.648438-10.097657-17.765625-86.515625 6.613282-156.359375 46.3125zm0 0" fill="#4caf50"/><path d="m503.386719 196.972656c-3.710938-6.53125-16.386719-7.359375-34.390625-3.835937 1.980468.941406 3.464844 2.210937 4.390625 3.835937 10.097656 17.765625-49.949219 70.949219-119.792969 110.648438-38.0625 21.632812-71.175781 34.796875-95.066406 39.421875 19.507812 7.136719 66.414062-6.085938 125.066406-39.421875 69.84375-39.699219 129.890625-92.882813 119.792969-110.648438zm0 0" fill="#43a047"/><path d="m256 504.5c-10.9375 0-19.703125-9.058594-19.34375-19.988281l4.785156-146.011719h29.117188l4.785156 146.011719c.359375 10.929687-8.40625 19.988281-19.34375 19.988281zm0 0" fill="#5d4037"/><path d="m152.964844 305.917969c56.796875-6.226563 95.199218 6.226562 97.429687 26.539062 2.226563 20.3125-32.570312 40.792969-89.363281 47.019531-56.796875 6.230469-114.085938-4.152343-116.3125-24.464843-2.230469-20.316407 51.449219-42.867188 108.246094-49.09375zm0 0" fill="#f44336"/><path d="m250.390625 332.457031c-2.054687-18.761719-34.984375-30.804687-84.742187-27.632812 32.648437 2.394531 53.132812 12.960937 54.742187 27.632812 2.226563 20.3125-32.566406 40.792969-89.363281 47.019531-5.921875.652344-11.851563 1.117188-17.726563 1.414063 15.074219.789063 31.421875.375 47.726563-1.414063 56.796875-6.226562 91.59375-26.707031 89.363281-47.019531zm0 0" fill="#e53935"/><path d="m359.035156 305.917969c-56.796875-6.226563-95.199218 6.226562-97.429687 26.539062-2.226563 20.3125 32.570312 40.792969 89.363281 47.019531 56.796875 6.230469 114.085938-4.152343 116.3125-24.464843 2.230469-20.316407-51.449219-42.867188-108.246094-49.09375zm0 0" fill="#f44336"/><path d="m359.035156 305.917969c-15.773437-1.730469-30.125-2.015625-42.683594-1.09375 4.121094.261719 8.339844.617187 12.683594 1.09375 56.796875 6.226562 110.472656 28.777343 108.246094 49.089843-1.585938 14.480469-31.15625 23.914063-68.582031 25.882813 50.417969 2.539063 96.585937-7.6875 98.582031-25.882813 2.230469-20.3125-51.449219-42.863281-108.246094-49.089843zm0 0" fill="#e53935"/><path d="m293 202.113281c0 98.445313-16.566406 161.886719-37 161.886719s-37-63.441406-37-161.886719c0-98.441406 16.566406-194.613281 37-194.613281s37 96.171875 37 194.613281zm0 0" fill="#f44336"/><path d="m256 7.5c-5.339844 0-10.414062 6.578125-15 18.039062 12.960938 32.390626 22 103.859376 22 176.574219 0 72.71875-9.039062 126.332031-22 149.390625 4.585938 8.15625 9.660156 12.496094 15 12.496094 20.433594 0 37-63.441406 37-161.886719 0-98.441406-16.566406-194.613281-37-194.613281zm0 0" fill="#e53935"/><path d="m509.882812 193.261719c-8.007812-14.078125-35.464843-12.777344-81.621093 3.863281-3.894531 1.402344-5.914063 5.699219-4.507813 9.597656 1.402344 3.894532 5.703125 5.914063 9.597656 4.511719 47.40625-17.09375 62.339844-12.589844 63.492188-10.5625.941406 1.664063-1.121094 12.957031-28.449219 37.855469-22.726562 20.707031-54.992187 43.515625-88.523437 62.574218-.101563.054688-.199219.117188-.300782.179688-6.523437-1.148438-13.128906-2.09375-19.722656-2.816406-25.25-2.765625-48.203125-2.015625-66.191406 2.0625.753906-4.597656 1.449219-9.371094 2.082031-14.304688 30.863281-24.417968 72.511719-47.515625 108.390625-63.265625 3.792969-1.664062 5.515625-6.089843 3.851563-9.882812-1.664063-3.792969-6.085938-5.515625-9.878907-3.851563-10.132812 4.445313-20.261718 9.25-30.308593 14.363282 19.539062-36.136719 36.234375-73.78125 46.433593-104.851563 5.722657-17.433594 9.132813-31.941406 10.140626-43.117187.484374-5.375 1.957031-21.726563-8.769532-27.757813-10.59375-5.949219-23.539062 3.492187-27.792968 6.597656-8.820313 6.433594-19.207032 16.558594-30.871094 30.09375-18.34375 21.289063-38.558594 49.613281-57.222656 79.984375-1.484376-35.601562-5.015626-69.988281-10.175782-98.003906-10.984375-59.632812-24.398437-66.53125-33.535156-66.53125-12.957031 0-20.105469 16.703125-24.355469 29.265625-5.210937 15.402344-9.800781 37.28125-13.265625 63.273437-.546875 4.105469 2.335938 7.878907 6.441406 8.425782 4.101563.546875 7.878907-2.335938 8.425782-6.441406 8.042968-60.296876 19.164062-77.769532 22.753906-79.464844 3.019531 1.417968 11.773438 14.078125 19.460938 57.933594 5.839843 33.324218 9.398437 75.585937 9.960937 117.519531-.007813.207031-.003906.417969.007813.625.488281 38.6875-1.613282 89.449219-10.566407 127.101562-7.457031 31.390625-16.144531 38.261719-18.863281 38.261719-2.714844 0-11.402344-6.875-18.863281-38.261719-8.9375-37.597656-11.058594-88.300781-10.5625-127.113281.011719-.199219.015625-.402344.007812-.601562.292969-21.617188 1.378907-43.636719 3.195313-64.339844.363281-4.125-2.6875-7.761719-6.816406-8.125-4.117188-.363282-7.761719 2.691406-8.125 6.816406-1.125 12.855469-1.980469 26.210938-2.539063 39.667969-18.664063-30.375-38.886719-58.699219-57.230469-79.988281-11.660156-13.539063-22.046875-23.664063-30.871094-30.097657-4.253906-3.105469-17.195312-12.542969-27.792968-6.59375-10.722656 6.027344-9.25 22.378907-8.769532 27.753907 1.007813 11.175781 4.421876 25.683593 10.140626 43.117187 10.199218 31.066406 26.894531 68.707031 46.429687 104.839844-10.226563-5.1875-20.695313-10.128907-31.25-14.738281-20.597656-8.988282-71.242187-29.386719-96.574219-24.585938-6.792968 1.289062-11.589844 4.320312-14.261718 9.019531-6.988282 12.304688 3.28125 30.738281 31.390624 56.347657 20.300782 18.496093 47.855469 38.554687 77.179688 56.292968-13.511719 3.402344-26.15625 7.621094-36.992188 12.417969-25.285156 11.1875-37.871093 24.15625-36.40625 37.503906 1.46875 13.34375 16.566407 23.273438 43.664063 28.714844 25.140625 5.050781 55.214844 5.203125 80.90625 2.390625 4.117187-.453125 7.085937-4.15625 6.636719-8.273438-.449219-4.117187-4.152344-7.089843-8.269532-6.636718-26.910156 2.949218-54.726562 2.152344-76.320312-2.183594-24.207031-4.863281-31.320312-12.125-31.707031-15.652344-.386719-3.523437 4.980469-12.152344 27.5625-22.144531 20.140625-8.914063 47.125-15.71875 74.027343-18.667969 26.960938-2.957031 50.753907-1.714844 67.648438 3.46875 2.378906 10.921875 5.703125 23.054688 10.382812 33.101563-9.3125 6.761719-23.546874 12.644531-40.863281 16.824219-4.023437.972656-6.5 5.023437-5.53125 9.050781.972657 4.015625 5.015625 6.503906 9.050781 5.53125 15.28125-3.6875 28.308594-8.566407 38.527344-14.378907l-3.835937 117.289063c-.5 15.183594 11.644531 27.734375 26.832031 27.734375 15.222656 0 27.335938-12.585938 26.835938-27.734375l-3.839844-117.308594c17.121094 9.710938 42.027344 16.785157 71.148437 19.976563 25.703125 2.816406 55.773438 2.660156 80.902344-2.386719 27.101563-5.441406 42.199219-15.371094 43.664063-28.71875 1.464843-13.347656-11.121094-26.316406-36.402344-37.503906-10.839844-4.792969-23.484375-9.011719-36.996094-12.417969 29.324219-17.738281 56.878906-37.796875 77.179688-56.292969 28.113281-25.605469 38.378906-44.039062 31.390624-56.351562zm-209.4375-.589844c20.6875-36.085937 44.714844-71.089844 66.105469-96.289063 26.152344-30.800781 39.054688-36.015624 41.691407-35.429687 1.910156 1.996094 4.171874 16.128906-9.125 55.6875-10.8125 32.175781-30.265626 75.964844-55.953126 120.21875-16.738281 9.519531-31.886718 19.199219-45.234374 28.894531 2.078124-23.789062 2.773437-48.921875 2.515624-73.082031zm-187.5625-76.03125c-13.292968-39.558594-11.03125-53.695313-9.121093-55.691406 2.640625-.585938 15.539062 4.636719 41.6875 35.433593 21.394531 25.195313 45.421875 60.203126 66.109375 96.289063-.257813 23.875.417968 49.105469 2.515625 73.082031-13.558594-9.851562-28.894531-19.648437-45.269531-28.960937-25.9375-44.691407-45.257813-88.429688-55.921876-120.152344zm39.273438 181.824219c-6.59375.722656-13.199219 1.671875-19.726562 2.816406-.097657-.0625-.195313-.125-.300782-.183594-33.527344-19.058594-65.792968-41.863281-88.523437-62.570312-27.324219-24.898438-29.390625-36.191406-28.449219-37.851563.222656-.386719 1.3125-1.179687 4.011719-1.691406 14.507812-2.746094 48.144531 6.292969 87.785156 23.597656 40.46875 17.664063 81.0625 41.316407 109.308594 63.640625.632812 4.933594 1.328125 9.707032 2.082031 14.304688-17.988281-4.078125-40.945312-4.828125-66.1875-2.0625zm103.84375 198.535156c-6.703125 0-12.0625-5.539062-11.84375-12.246094l3.769531-115.179687c2.570313 1.28125 5.261719 1.925781 8.074219 1.925781s5.503906-.644531 8.074219-1.925781l3.769531 115.183593c.222656 6.699219-5.136719 12.242188-11.84375 12.242188zm176.238281-164.957031c22.582031 9.992187 27.949219 18.625 27.566407 22.148437-.390626 3.523438-7.503907 10.789063-31.710938 15.648438-21.589844 4.335937-49.410156 5.128906-76.316406 2.183594-30.945313-3.390626-57.066406-11.507813-71.597656-22.074219 4.710937-10.109375 8.03125-22.304688 10.382812-33.105469 16.894531-5.183594 40.6875-6.421875 67.648438-3.46875 26.902343 2.953125 53.886718 9.757812 74.027343 18.667969zm0 0"/></svg>